<?xml version="1.0" encoding="utf-8"?>
<!-- Generator: Adobe Illustrator 25.0.0, SVG Export Plug-In . SVG Version: 6.00 Build 0)  -->
<svg version="1.1" id="Layer_1" xmlns="http://www.w3.org/2000/svg" xmlns:xlink="http://www.w3.org/1999/xlink" x="0px" y="0px"
	 viewBox="0 0 320 320" style="enable-background:new 0 0 320 320;" xml:space="preserve">
<style type="text/css">
	.st0{fill:#EEEEEE;}
	.st1{fill:#777777;}
</style>
<g>
	<rect x="0.2" y="-0.2" class="st0" width="320" height="320"/>
</g>
<g>
	<path class="st1" d="M233.2,92.4h-146c-9.3,0-16.8,7.5-16.8,16.8v101.1c0,9.3,7.5,16.8,16.8,16.8h146c9.3,0,16.8-7.5,16.8-16.8
		V109.3C250.1,100,242.5,92.4,233.2,92.4z M231.1,210.3H89.4c-1.2,0-2.1-0.9-2.1-2.1v-96.9c0-1.2,0.9-2.1,2.1-2.1h141.8
		c1.2,0,2.1,0.9,2.1,2.1v96.9C233.2,209.4,232.3,210.3,231.1,210.3z M115.2,123.4c-7.8,0-14,6.3-14,14c0,7.8,6.3,14,14,14
		s14-6.3,14-14C129.3,129.7,123,123.4,115.2,123.4z M104.1,193.5h112.3v-28.1l-30.7-30.7c-1.6-1.6-4.3-1.6-6,0l-41.9,41.9
		l-13.9-13.9c-1.6-1.6-4.3-1.6-6,0l-13.9,13.9V193.5z"/>
</g>
</svg>
