<svg height="335" viewBox="0 0 308 335" width="308" xmlns="http://www.w3.org/2000/svg"
     xmlns:xlink="http://www.w3.org/1999/xlink">
  <defs>
    <circle cx="135" cy="161" id="b" r="135"/>
    <filter filterUnits="objectBoundingBox" height="129.3%" id="a" width="127.4%" x="-13.7%" y="-8.1%">
      <feMorphology in="SourceAlpha" operator="dilate" radius="4.5" result="shadowSpreadOuter1"/>
      <feOffset dy="20" in="shadowSpreadOuter1" result="shadowOffsetOuter1"/>
      <feGaussianBlur in="shadowOffsetOuter1" result="shadowBlurOuter1" stdDeviation="7.5"/>
      <feComposite in="shadowBlurOuter1" in2="SourceAlpha" operator="out" result="shadowBlurOuter1"/>
      <feColorMatrix in="shadowBlurOuter1" values="0 0 0 0 0 0 0 0 0 0 0 0 0 0 0 0 0 0 0.2 0"/>
    </filter>
    <path d="M0 .518h179.802V142H0z" id="c"/>
    <path d="M.466.104h70.343v123.519H.466z" id="e"/>
    <path d="M.56.104h70.344v123.518H.56z" id="g"/>
  </defs>
  <g fill="none" fill-rule="evenodd">
    <g transform="translate(19)">
      <use fill="#000" filter="url(#a)" xlink:href="#b"/>
      <use fill="#FFF" stroke="#87BF48" stroke-width="9" xlink:href="#b"/>
    </g>
    <g transform="translate(124)">
      <circle cx="30" cy="30" fill="#87BF48" r="30"/>
      <text fill="#FFF" font-family="Roboto-Bold" font-size="30" font-weight="bold">
        <tspan x="20.788" y="40">2</tspan>
      </text>
    </g>
    <g transform="translate(64 95)">
      <mask fill="#fff" id="d">
        <use xlink:href="#c"/>
      </mask>
      <path d="M175.078 16.009c15.841 24.397-9.45 68.91-56.493 99.424-47.041 30.514-98.019 35.472-113.86 11.076-15.842-24.397 9.45-68.911 56.492-99.425 47.042-30.513 98.019-35.472 113.86-11.075"
            fill="#F6F3FF"
            mask="url(#d)"/>
    </g>
    <path d="M165.57 177.298c-1.816 2.34-4.298 4.012-7.45 5.014v6.805h-8.739V182.6c-1.91-.382-3.45-.907-4.62-1.576-1.171-.668-2.232-1.6-3.188-2.794a13.956 13.956 0 0 1-2.077-3.76c-.526-1.408-.788-2.734-.788-3.976v-.716h11.032c.286 3.056 1.55 4.584 3.796 4.584 1.05 0 1.934-.37 2.65-1.11.717-.74 1.074-1.66 1.074-2.758 0-1.242-.454-2.292-1.36-3.152-.908-.86-2.435-1.695-4.585-2.507l-2.148-.788c-6.734-2.483-10.101-6.686-10.101-12.607 0-3.295.895-6.065 2.687-8.31 1.79-2.244 4.333-3.82 7.628-4.728v-6.518h8.74v6.518c1.479.383 2.686.86 3.616 1.433.933.573 1.851 1.433 2.76 2.579.953 1.242 1.634 2.435 2.04 3.581.405 1.147.61 2.484.61 4.012v.645h-10.03c-.24-2.723-1.41-4.084-3.51-4.084-1.05 0-1.898.335-2.542 1.003-.645.67-.968 1.553-.968 2.65 0 1.243.466 2.305 1.398 3.189.93.884 2.614 1.755 5.05 2.614l2.22.788c3.01 1.099 5.348 2.757 7.02 4.979 1.671 2.22 2.507 4.716 2.507 7.485 0 3.01-.907 5.684-2.722 8.023M153.5 116c-24.577 0-44.5 19.924-44.5 44.5 0 24.577 19.923 44.5 44.5 44.5s44.5-19.923 44.5-44.5c0-24.576-19.923-44.5-44.5-44.5"
          fill="#9ABF28"/>
    <g transform="translate(80 86)">
      <mask fill="#fff" id="f">
        <use xlink:href="#e"/>
      </mask>
      <path d="M34.83 108.97c-8.446-9.37-13.59-21.756-13.59-35.344 0-28.043 21.894-50.976 49.57-52.774V.104C31.652 1.926.465 34.142.465 73.626c0 19.306 7.466 36.867 19.664 49.997l14.7-14.654z"
            fill="#EAEAEA"
            mask="url(#f)"/>
    </g>
    <g transform="translate(157 86)">
      <mask fill="#fff" id="h">
        <use xlink:href="#g"/>
      </mask>
      <path d="M.56 20.852c27.676 1.798 49.57 24.73 49.57 52.774 0 13.587-5.145 25.974-13.59 35.343l14.7 14.653c12.198-13.128 19.664-30.69 19.664-49.996C70.904 34.142 39.717 1.926.56.104v20.748z"
            fill="#D3D3D3"
            mask="url(#h)"/>
    </g>
    <path d="M188.332 200c-9.238 7.81-21.223 12.539-34.332 12.539-13.11 0-25.094-4.728-34.332-12.539L105 214.502C118.011 226 135.176 233 154 233c18.825 0 35.99-7 49-18.498L188.332 200z"
          fill="#9ABF28"/>
    <path d="M188.693 135.807c-.84 0-1.67-.373-2.229-1.085-7.996-10.21-20.011-16.067-32.964-16.067-8.753 0-17.135 2.674-24.24 7.732a2.828 2.828 0 0 1-3.28-4.606c8.068-5.745 17.584-8.781 27.52-8.781 14.703 0 28.34 6.647 37.417 18.235a2.829 2.829 0 0 1-2.224 4.572m9.48 27.521a2.828 2.828 0 0 1-2.828-2.828 41.591 41.591 0 0 0-3.235-16.162 2.828 2.828 0 0 1 5.216-2.186A47.213 47.213 0 0 1 201 160.5a2.828 2.828 0 0 1-2.828 2.828M153.5 208c-26.192 0-47.5-21.308-47.5-47.5a2.828 2.828 0 1 1 5.655 0c0 23.073 18.772 41.845 41.845 41.845 15.165 0 29.18-8.237 36.573-21.497a2.828 2.828 0 0 1 4.94 2.755C186.62 198.652 170.714 208 153.5 208"
          fill="#67A550"/>
    <path d="M121.06 228c-.43 0-.865-.095-1.274-.298a77.17 77.17 0 0 1-16.836-11.273 2.785 2.785 0 0 1-.949-2.012 2.78 2.78 0 0 1 .833-2.06L117.6 197.82a2.88 2.88 0 0 1 3.864-.148 50.483 50.483 0 0 0 26.061 11.466c1.56.203 2.657 1.611 2.451 3.147-.206 1.534-1.638 2.615-3.196 2.412a56.197 56.197 0 0 1-26.972-11.121l-10.77 10.603a71.5 71.5 0 0 0 13.3 8.51 2.784 2.784 0 0 1 1.27 3.762A2.853 2.853 0 0 1 121.06 228M160.789 215c-1.38 0-2.579-1.008-2.765-2.393-.202-1.507.873-2.89 2.402-3.09 5.064-.661 9.971-2.09 14.585-4.25 1.392-.653 3.057-.066 3.719 1.307a2.737 2.737 0 0 1-1.325 3.668 55.075 55.075 0 0 1-16.247 4.734 2.89 2.89 0 0 1-.37.024"
          fill="#67A550"/>
    <path d="M154.143 236a76.678 76.678 0 0 1-17.976-2.13 2.83 2.83 0 1 1 1.328-5.503 71.031 71.031 0 0 0 16.648 1.971 70.629 70.629 0 0 0 44.863-16.05l-6.454-6.456a2.83 2.83 0 0 1 4.003-4.003l8.616 8.616a2.834 2.834 0 0 1-.115 4.113A76.294 76.294 0 0 1 154.143 236"
          fill="#67A550"/>
  </g>
</svg>
