<svg height="335" viewBox="0 0 308 335" width="308" xmlns="http://www.w3.org/2000/svg"
     xmlns:xlink="http://www.w3.org/1999/xlink">
  <defs>
    <circle cx="135" cy="161" id="b" r="135"/>
    <filter filterUnits="objectBoundingBox" height="129.3%" id="a" width="127.4%" x="-13.7%" y="-8.1%">
      <feMorphology in="SourceAlpha" operator="dilate" radius="4.5" result="shadowSpreadOuter1"/>
      <feOffset dy="20" in="shadowSpreadOuter1" result="shadowOffsetOuter1"/>
      <feGaussianBlur in="shadowOffsetOuter1" result="shadowBlurOuter1" stdDeviation="7.5"/>
      <feComposite in="shadowBlurOuter1" in2="SourceAlpha" operator="out" result="shadowBlurOuter1"/>
      <feColorMatrix in="shadowBlurOuter1" values="0 0 0 0 0 0 0 0 0 0 0 0 0 0 0 0 0 0 0.2 0"/>
    </filter>
    <path d="M.576.143h104.89v16.282H.575z" id="c"/>
  </defs>
  <g fill="none" fill-rule="evenodd">
    <g transform="translate(19)">
      <use fill="#000" filter="url(#a)" xlink:href="#b"/>
      <use fill="#FFF" stroke="#87BF48" stroke-width="9" xlink:href="#b"/>
    </g>
    <g transform="translate(124)">
      <circle cx="30" cy="30" fill="#87BF48" r="30"/>
      <text fill="#FFF" font-family="Roboto-Bold" font-size="30" font-weight="bold">
        <tspan x="20.788" y="40">4</tspan>
      </text>
    </g>
    <g transform="translate(142 202)">
      <mask fill="#fff" id="d">
        <use xlink:href="#c"/>
      </mask>
      <path d="M105.466 8.284c0 4.496-23.48 8.14-52.445 8.14S.576 12.78.576 8.285 24.056.143 53.021.143c28.964 0 52.445 3.645 52.445 8.141"
            fill="#000"
            mask="url(#d)" opacity=".1"/>
    </g>
    <path d="M228.265 190.872c-2.733 0-4.949-2.207-4.949-4.929 0-2.722 2.216-4.929 4.949-4.929 2.733 0 4.95 2.207 4.95 4.929 0 2.722-2.217 4.929-4.95 4.929zM176.19 143h-5.603c-1.201 0-2.284.716-2.75 1.818l-5.488 12.985a2.983 2.983 0 0 1-2.75 1.818h-5.617a2.977 2.977 0 0 0-2.983 2.971v2.489c0 1.64 1.335 2.97 2.983 2.97 2.032 0 3.47 1.981 2.832 3.903l-2.09 6.298v27.778c0 1.64 1.335 2.97 2.982 2.97h8.849a2.976 2.976 0 0 0 2.982-2.97v-4.07c0-1.641 1.336-2.971 2.984-2.971h47.956a2.977 2.977 0 0 1 2.984 2.97v4.07c0 1.642 1.335 2.971 2.982 2.971h8.849a2.976 2.976 0 0 0 2.982-2.97v-27.778l-2.09-6.298c-.643-1.938.823-3.935 2.882-3.902 1.631.026 2.933-1.366 2.933-2.99v-2.47c0-1.64-1.336-2.97-2.983-2.97H233.4c-1.2 0-2.284-.717-2.75-1.819l-5.488-12.985a2.983 2.983 0 0 0-2.75-1.818H176.191zm40.618 3.37h1.104c1.205 0 2.292.722 2.754 1.83l7.564 18.122c.817 1.956-.626 4.111-2.753 4.111h-57.956c-2.127 0-3.57-2.155-2.754-4.11l7.565-18.123a2.982 2.982 0 0 1 2.753-1.83h41.723zm-1.21 47.183h-38.197c-2.11 0-3.627-2.02-3.03-4.034l1.85-6.249a3.158 3.158 0 0 1 3.03-2.256h34.496c1.4 0 2.635.92 3.03 2.256l1.85 6.249c.597 2.014-.92 4.034-3.03 4.034zm-50.946-2.681c-2.733 0-4.948-2.207-4.948-4.929 0-2.722 2.215-4.929 4.948-4.929 2.734 0 4.95 2.207 4.95 4.929 0 2.722-2.216 4.929-4.95 4.929z"
          fill="#7967A6"/>
    <path d="M225.202 172.085h-22.99a1.202 1.202 0 0 1 0-2.404h22.99c.61 0 1.154-.292 1.492-.8.34-.507.399-1.121.165-1.684l-7.597-18.286a1.79 1.79 0 0 0-1.658-1.107h-11.192a1.202 1.202 0 0 1 0-2.404h11.192a4.187 4.187 0 0 1 3.877 2.588l7.596 18.285a4.19 4.19 0 0 1-.384 3.943 4.187 4.187 0 0 1-3.49 1.869m2.799 10.677a3.775 3.775 0 0 0-3.77 3.771 3.775 3.775 0 0 0 3.77 3.771 3.775 3.775 0 0 0 3.77-3.77 3.775 3.775 0 0 0-3.77-3.772m0 9.946a6.18 6.18 0 0 1-6.172-6.175 6.18 6.18 0 0 1 6.172-6.175 6.181 6.181 0 0 1 6.173 6.175 6.181 6.181 0 0 1-6.173 6.175m-12.723 2.706h-26.505a1.202 1.202 0 0 1 0-2.404h26.505c.628 0 1.203-.288 1.579-.791.376-.503.49-1.137.312-1.738l-1.858-6.305a1.982 1.982 0 0 0-1.89-1.414h-24.648a1.202 1.202 0 0 1 0-2.404h24.648a4.4 4.4 0 0 1 4.195 3.138l1.858 6.305a4.336 4.336 0 0 1-.693 3.857 4.335 4.335 0 0 1-3.503 1.756M235.061 211h-8.888a4.202 4.202 0 0 1-4.197-4.199v-4.107c0-.99-.805-1.795-1.795-1.795h-34.98a1.202 1.202 0 0 1 0-2.404h34.98a4.203 4.203 0 0 1 4.197 4.199v4.107c0 .99.806 1.796 1.795 1.796h8.888c.99 0 1.794-.806 1.794-1.796v-27.835l-2.038-6.17a4.203 4.203 0 0 1 .603-3.806c.815-1.11 2.07-1.72 3.45-1.712.42.008.848-.163 1.169-.48.354-.35.558-.836.558-1.336v-2.491c0-.99-.806-1.795-1.795-1.795h-5.643a4.19 4.19 0 0 1-3.869-2.57l-5.512-13.103a1.791 1.791 0 0 0-1.654-1.099h-11.513a1.202 1.202 0 0 1 0-2.404h11.513a4.19 4.19 0 0 1 3.87 2.57l5.511 13.103c.281.667.931 1.099 1.654 1.099h5.643A4.204 4.204 0 0 1 243 162.97v2.491a4.3 4.3 0 0 1-1.275 3.048c-.785.772-1.804 1.158-2.893 1.172h-.03c-.577 0-1.103.265-1.446.731a1.776 1.776 0 0 0-.258 1.627l2.1 6.355c.04.122.06.249.06.377v28.03a4.203 4.203 0 0 1-4.197 4.198"
          fill="#B5A4EA"/>
    <path d="M245 220c0 9.389-37.384 17-83.5 17-46.115 0-83.5-7.611-83.5-17s37.385-17 83.5-17c46.116 0 83.5 7.611 83.5 17"
          fill="#000"
          opacity=".1"/>
    <path d="M63 176h63V86H63z" fill="#E0E3E8"/>
    <path d="M63 97h63V87H63zM71 106h17v-2H71zM101 106h17v-2h-17zM71 109h20v-2H71zM71 113h20v-2H71z" fill="#BDC6D5"/>
    <path d="M70 151h48v-33H70z" fill="#E4E9F2"/>
    <path d="M70 151h48v-33H70z" stroke="#BDC6D5" stroke-width="2"/>
    <path d="M98 158h20v-7H98z" fill="#E4E9F2"/>
    <path d="M98 158h20v-7H98z" stroke="#BDC6D5" stroke-width="2"/>
    <path d="M98 165h20v-7H98z" fill="#E4E9F2"/>
    <path d="M98 165h20v-7H98z" stroke="#BDC6D5" stroke-width="2"/>
    <path d="M70 124h48v-6H70zM70 151h48v-6H70z" fill="#BDC6D5"/>
    <path d="M97.65 151.815v-27.484" fill="#FFF"/>
    <path d="M97.65 151.815v-27.484" stroke="#BDC6D5" stroke-width="2"/>
    <path d="M77.528 151.815v-27.484" fill="#FFF"/>
    <path d="M77.528 151.815v-27.484" stroke="#BDC6D5" stroke-width="2"/>
    <path d="M86 203h63v-90H86z" fill="#E0E3E8"/>
    <path d="M86 123h63v-10H86zM93 132h17v-2H93zM123 132h17v-2h-17zM93 136h20v-2H93zM93 139h20v-2H93z" fill="#BDC6D5"/>
    <path d="M93 178h48v-33H93z" fill="#E4E9F2"/>
    <path d="M93 178h48v-33H93z" stroke="#BDC6D5" stroke-width="2"/>
    <path d="M120 185h20v-7h-20z" fill="#E4E9F2"/>
    <path d="M120 185h20v-7h-20z" stroke="#BDC6D5" stroke-width="2"/>
    <path d="M120 191h20v-7h-20z" fill="#E4E9F2"/>
    <path d="M120 191h20v-7h-20z" stroke="#BDC6D5" stroke-width="2"/>
    <path d="M93 151h48v-6H93zM93 178h48v-6H93z" fill="#BDC6D5"/>
    <path d="M120.369 177.85v-27.485" fill="#FFF"/>
    <path d="M120.369 177.85v-27.485" stroke="#BDC6D5" stroke-width="2"/>
    <path d="M99.747 177.85v-27.485" fill="#FFF"/>
    <path d="M99.747 177.85v-27.485" stroke="#BDC6D5" stroke-width="2"/>
    <path d="M167.902 152s2.028 8.928 5.622 11.31c3.593 2.38 21.86 15.475 23.358 31.843 1.498 16.369 1.498 20.535 5.69 23.214 4.192 2.678 2.995 7.738-3.894 6.845-6.887-.893-8.126 9.788-41.178 9.788-33.053 0-34.29-10.681-41.179-9.788-6.887.893-8.085-4.167-3.893-6.845 4.193-2.68 4.193-6.845 5.69-23.214 1.497-16.368 19.765-29.463 23.359-31.844 3.593-2.38 5.621-11.309 5.621-11.309h20.804z"
          fill="#75AE61"/>
    <path d="M174.485 127.7l-.338.212c-2.607-4.08-8.307-6.912-14.924-6.912-6.826 0-12.68 3.013-15.163 7.301-11.635-9.707-18.61 4.438-7.37 13.469 11.581 9.305 11.634 7.358 12.04 16.02 0 0 8.228 7.688 17.151 2.286 0 0-1.73-5.871 11.6-15.1 13.333-9.228 6.772-23.308-2.996-17.275"
          fill="#75AE61"/>
    <path d="M173.324 154h-29.647c-.926 0-1.677-.695-1.677-1.552v-1.896c0-.857.75-1.552 1.677-1.552h29.647c.925 0 1.676.695 1.676 1.552v1.896c0 .857-.75 1.552-1.676 1.552M173.324 160h-29.647c-.926 0-1.677-.695-1.677-1.552v-1.896c0-.857.75-1.552 1.677-1.552h29.647c.925 0 1.676.695 1.676 1.552v1.896c0 .857-.75 1.552-1.676 1.552"
          fill="#FCD674"/>
    <path d="M161.465 218h-6.745c-.59 0-1.018-.133-1.28-.397-.264-.263-.393-.693-.393-1.283v-2.52h-6.374c-.59 0-1.015-.133-1.28-.397-.265-.264-.393-.69-.393-1.283v-5.46c0-.59.128-1.02.393-1.283.265-.264.69-.397 1.28-.397h12.513c.402 0 .705-.13.906-.397.2-.264.302-.583.302-.957 0-.528-.102-.918-.302-1.166-.201-.249-.504-.389-.906-.42l-6.979-.98c-2.169-.311-3.914-1.027-5.231-2.146-1.318-1.121-1.976-2.988-1.976-5.6v-4.9c0-2.426.711-4.333 2.138-5.717 1.427-1.384 3.395-2.186 5.909-2.404v-2.613c0-.59.129-1.018.394-1.283.261-.265.689-.397 1.28-.397h6.744c.587 0 1.015.132 1.28.397.261.265.393.693.393 1.283v2.52h4.512c.587 0 1.015.133 1.28.397.261.265.393.693.393 1.283v5.555c0 .59-.132 1.017-.393 1.281-.265.266-.693.397-1.28.397h-10.836c-.406 0-.716.133-.932.397-.216.266-.325.6-.325 1.004 0 .405.11.747.325 1.026.216.281.526.437.932.467l6.93.934c2.169.31 3.921 1.025 5.254 2.146 1.332 1.12 2.002 2.987 2.002 5.6v4.9c0 2.364-.7 4.246-2.093 5.646-1.397 1.401-3.32 2.225-5.769 2.474v2.613c0 .59-.132 1.02-.393 1.283-.265.264-.693.397-1.28.397"
          fill="#2D6612"/>
    <path d="M175.74 190c-.037 0-.073 0-.11-.002-1.216-.06-2.154-1.069-2.094-2.256.95-18.94-11.088-27.474-11.602-27.828a2.124 2.124 0 0 1-.534-2.997 2.236 2.236 0 0 1 3.062-.53c.594.404 14.554 10.157 13.479 31.566-.058 1.151-1.033 2.047-2.201 2.047"
          fill="#FCD674"/>
    <path d="M183.876 184a2.124 2.124 0 0 1-2.085-1.762c-3.25-18.542-16.061-22.007-16.19-22.04a2.132 2.132 0 0 1-1.536-2.589 2.12 2.12 0 0 1 2.577-1.543c.636.162 15.605 4.204 19.326 25.433a2.13 2.13 0 0 1-2.092 2.501"
          fill="#FCD674"/>
    <path d="M113 113H86v54M120 112.5h11" stroke="#8B9BB2" stroke-linecap="round" stroke-linejoin="round"
          stroke-width="5"/>
    <path d="M90 87H63v54M98 86.5h11" stroke="#6F8BAD" stroke-linecap="round" stroke-linejoin="round" stroke-width="5"/>
    <path d="M121.412 187a2.413 2.413 0 0 1-2.14-3.525c2.79-5.383 7.059-10.715 12.69-15.845a2.413 2.413 0 1 1 3.25 3.567c-5.208 4.746-9.13 9.625-11.656 14.5a2.412 2.412 0 0 1-2.144 1.303"
          fill="#C1E5B1"/>
    <path d="M140.685 147c-.497 0-.998-.165-1.42-.505a228.709 228.709 0 0 1-3.892-3.203c-6.577-5.54-7.418-12.604-5.417-16.822 1.677-3.535 5.15-5.147 9.072-4.206 1.244.3 2.019 1.585 1.73 2.871-.29 1.287-1.531 2.085-2.777 1.789-1.814-.436-3.153.136-3.871 1.652-1.26 2.656-.228 7.29 4.185 11.008a223.105 223.105 0 0 0 3.814 3.138c1.007.812 1.188 2.314.402 3.357a2.283 2.283 0 0 1-1.826.921"
          fill="#2D6612"/>
    <path d="M169.633 126a2.26 2.26 0 0 1-1.248-.378c-2.57-1.694-5.873-2.626-9.3-2.626-2.399 0-4.768.46-6.851 1.33-1.214.506-2.588-.122-3.068-1.405s.115-2.735 1.33-3.242c2.63-1.098 5.602-1.679 8.59-1.679 4.299 0 8.49 1.2 11.8 3.382 1.108.73 1.446 2.27.756 3.441-.448.76-1.22 1.177-2.009 1.177"
          fill="#C1E5B1"/>
    <path d="M179.672 145a2.259 2.259 0 0 1-1.703-.781c-.856-.977-.789-2.49.152-3.378 4.177-3.95 4.925-8.33 3.813-10.917-.38-.885-1.332-2.342-3.4-2.12-1.261.13-2.395-.826-2.522-2.14-.128-1.314.794-2.487 2.06-2.619 3.513-.366 6.605 1.522 8.07 4.93 1.656 3.855 1.361 10.463-4.92 16.401a2.245 2.245 0 0 1-1.55.624M176.377 236a2.376 2.376 0 0 1-2.336-1.925 2.362 2.362 0 0 1 1.9-2.756c8.358-1.557 12.56-4.06 15.626-5.89 2.606-1.553 4.855-2.892 8-2.489 2.447.318 3.515-.329 3.65-.692.125-.34-.204-1.14-1.327-1.857-4.836-3.084-5.243-7.627-6.45-21.112-.11-1.239-.228-2.561-.358-3.974-.293-3.199-1.327-6.515-3.075-9.858a2.35 2.35 0 0 1 1.016-3.182 2.39 2.39 0 0 1 3.208 1.01c2.033 3.888 3.241 7.792 3.59 11.603.13 1.416.248 2.742.36 3.984 1.161 12.978 1.504 15.786 4.282 17.559 2.89 1.842 4.185 4.836 3.222 7.448-.83 2.253-3.56 4.42-8.733 3.753-1.433-.189-2.551.433-4.934 1.853-3.186 1.9-8 4.77-17.2 6.484-.147.028-.295.041-.441.041"
          fill="#2D6612"/>
    <path d="M157.765 237c-4.948 0-9.533-.216-13.627-.64-1.324-.138-2.274-1.221-2.122-2.422.151-1.199 1.352-2.066 2.67-1.923 3.912.406 8.313.612 13.08.612 1.967 0 3.892-.035 5.721-.104 1.343-.068 2.455.886 2.51 2.092.057 1.207-.976 2.226-2.307 2.276-1.897.072-3.891.109-5.925.109"
          fill="#C1E5B1"/>
    <path d="M126.63 232c-.365 0-.736-.085-1.083-.262-1.43-.733-2.6-1.433-3.632-2.05-2.371-1.418-3.48-2.04-4.91-1.85-5.15.665-7.865-1.497-8.692-3.746-.958-2.606.33-5.594 3.207-7.434 2.63-1.68 3.073-4.234 4.172-16.511a2.37 2.37 0 0 1 2.567-2.138 2.36 2.36 0 0 1 2.15 2.555c-1.106 12.359-1.52 16.982-6.329 20.058-1.117.714-1.444 1.513-1.32 1.852.134.362 1.2 1.009 3.632.692 3.134-.4 5.369.933 7.962 2.484.97.58 2.07 1.237 3.363 1.9a2.35 2.35 0 0 1 1.02 3.173A2.37 2.37 0 0 1 126.63 232"
          fill="#2D6612"/>
  </g>
</svg>
