<svg height="335" viewBox="0 0 308 335" width="308" xmlns="http://www.w3.org/2000/svg"
     xmlns:xlink="http://www.w3.org/1999/xlink">
  <defs>
    <circle cx="135" cy="161" id="b" r="135"/>
    <filter filterUnits="objectBoundingBox" height="129.3%" id="a" width="127.4%" x="-13.7%" y="-8.1%">
      <feMorphology in="SourceAlpha" operator="dilate" radius="4.5" result="shadowSpreadOuter1"/>
      <feOffset dy="20" in="shadowSpreadOuter1" result="shadowOffsetOuter1"/>
      <feGaussianBlur in="shadowOffsetOuter1" result="shadowBlurOuter1" stdDeviation="7.5"/>
      <feComposite in="shadowBlurOuter1" in2="SourceAlpha" operator="out" result="shadowBlurOuter1"/>
      <feColorMatrix in="shadowBlurOuter1" values="0 0 0 0 0 0 0 0 0 0 0 0 0 0 0 0 0 0 0.2 0"/>
    </filter>
  </defs>
  <g fill="none" fill-rule="evenodd">
    <g transform="translate(19)">
      <use fill="#000" filter="url(#a)" xlink:href="#b"/>
      <use fill="#FFF" stroke="#87BF48" stroke-width="9" xlink:href="#b"/>
    </g>
    <g transform="translate(124)">
      <circle cx="30" cy="30" fill="#87BF48" r="30"/>
      <text fill="#FFF" font-family="Roboto-Bold" font-size="30" font-weight="bold">
        <tspan x="20.788" y="40">3</tspan>
      </text>
    </g>
    <path d="M233.323 101.22c15.683 23.968-9.356 67.701-55.927 97.68-46.57 29.978-97.036 34.85-112.719 10.88-15.683-23.968 9.356-67.701 55.926-97.68 46.57-29.978 97.037-34.85 112.72-10.88"
          fill="#F6F3FF"/>
    <path d="M94.863 101.508c23.292-17.466 63.726-3.422 90.311 31.367 26.586 34.79 29.255 77.15 5.963 94.617-23.292 17.465-63.726 3.423-90.312-31.367-26.585-34.789-29.254-77.15-5.962-94.617"
          fill="#DCD8EF"/>
    <path d="M239 226c0 8.837-32.011 16-71.5 16-39.488 0-71.5-7.163-71.5-16s32.012-16 71.5-16c39.489 0 71.5 7.163 71.5 16"
          fill="#000"
          opacity=".1"/>
    <path d="M96 209h76v-11H96z" fill="#CE8E12"/>
    <path d="M172 208.5c0 6.904-17.013 12.5-38 12.5s-38-5.596-38-12.5 17.013-12.5 38-12.5 38 5.596 38 12.5"
          fill="#CE8E12"/>
    <path d="M154 206v13a73.338 73.338 0 0 0 3-.648V206h-3z" fill="#FDD574"/>
    <path d="M172 196.5c0 6.904-17.013 12.5-38 12.5s-38-5.596-38-12.5 17.013-12.5 38-12.5 38 5.596 38 12.5"
          fill="#FDD574"/>
    <path d="M134 184c-20.987 0-38 5.597-38 12.5s17.013 12.5 38 12.5 38-5.597 38-12.5-17.013-12.5-38-12.5m0 2.76c9.858 0 19.086 1.25 25.986 3.52 6.368 2.094 9.218 4.632 9.218 6.22 0 1.587-2.85 4.126-9.218 6.22-6.9 2.27-16.128 3.52-25.986 3.52s-19.087-1.25-25.986-3.52c-6.368-2.094-9.218-4.633-9.218-6.22 0-1.588 2.85-4.126 9.218-6.22 6.9-2.27 16.128-3.52 25.986-3.52"
          fill="#EFAA0F"/>
    <path d="M137.466 206h-6.745c-.589 0-1.015-.05-1.28-.151-.264-.1-.393-.264-.393-.49v-.959h-6.374c-.59 0-1.016-.05-1.279-.15-.263-.102-.395-.265-.395-.49v-2.08c0-.225.132-.388.395-.49.263-.1.69-.15 1.279-.15h12.512c.404 0 .706-.05.907-.151.2-.101.302-.222.302-.364 0-.202-.101-.35-.302-.445-.201-.095-.503-.148-.907-.16l-6.977-.373c-2.17-.119-3.915-.392-5.233-.818-1.318-.427-1.976-1.138-1.976-2.133v-1.868c0-.924.714-1.65 2.14-2.177 1.426-.528 3.395-.833 5.908-.916v-.995c0-.225.13-.388.394-.489.264-.1.69-.151 1.279-.151h6.745c.587 0 1.015.05 1.278.151.264.1.396.264.396.49v.959h4.51c.59 0 1.016.05 1.28.15.264.102.396.265.396.49v2.115c0 .226-.132.39-.395.49-.265.1-.691.15-1.28.15h-10.837c-.404 0-.714.051-.93.152-.217.1-.325.228-.325.382s.108.285.325.391c.216.107.526.166.93.178l6.93.356c2.17.118 3.922.39 5.257.817 1.332.427 1.999 1.138 1.999 2.133v1.867c0 .9-.698 1.618-2.093 2.152-1.396.533-3.318.847-5.767.942v.995c0 .225-.132.388-.396.489-.263.1-.69.151-1.278.151M96 187h76v-11H96z"
          fill="#CE8E12"/>
    <path d="M172 186.5c0 6.904-17.013 12.5-38 12.5s-38-5.596-38-12.5 17.013-12.5 38-12.5 38 5.596 38 12.5"
          fill="#CE8E12"/>
    <path d="M154 184v13a73.348 73.348 0 0 0 3-.647V184h-3z" fill="#FDD574"/>
    <path d="M172 176.5c0 6.903-17.013 12.5-38 12.5s-38-5.597-38-12.5c0-6.904 17.013-12.5 38-12.5s38 5.596 38 12.5"
          fill="#FDD574"/>
    <path d="M134 164c-20.987 0-38 5.597-38 12.5 0 6.904 17.013 12.5 38 12.5s38-5.596 38-12.5c0-6.903-17.013-12.5-38-12.5m0 2.76c9.858 0 19.086 1.25 25.986 3.52 6.368 2.094 9.218 4.633 9.218 6.22 0 1.587-2.85 4.126-9.218 6.221-6.9 2.27-16.128 3.52-25.986 3.52s-19.087-1.25-25.986-3.52c-6.368-2.095-9.218-4.634-9.218-6.221 0-1.587 2.85-4.126 9.218-6.22 6.9-2.27 16.128-3.52 25.986-3.52"
          fill="#EFAA0F"/>
    <path d="M137.466 185h-6.745c-.589 0-1.015-.05-1.28-.152-.264-.1-.393-.263-.393-.488v-.96h-6.374c-.59 0-1.016-.05-1.279-.151-.263-.101-.395-.264-.395-.489v-2.08c0-.225.132-.388.395-.49.263-.1.69-.15 1.279-.15h12.512c.404 0 .706-.05.907-.151.2-.101.302-.222.302-.365 0-.201-.101-.349-.302-.444-.201-.095-.503-.148-.907-.16l-6.977-.374c-2.17-.118-3.915-.39-5.233-.817-1.318-.427-1.976-1.138-1.976-2.133v-1.868c0-.924.714-1.65 2.14-2.177 1.426-.528 3.395-.833 5.908-.916v-.995c0-.225.13-.388.394-.49.264-.1.69-.15 1.279-.15h6.745c.587 0 1.015.05 1.278.15.264.102.396.265.396.49v.96h4.51c.59 0 1.016.05 1.28.15.264.102.396.265.396.49v2.115c0 .226-.132.389-.395.49-.265.1-.691.15-1.28.15h-10.837c-.404 0-.714.05-.93.152-.217.1-.325.228-.325.382s.108.284.325.391c.216.106.526.166.93.178l6.93.355c2.17.119 3.922.391 5.257.818 1.332.427 1.999 1.138 1.999 2.133v1.867c0 .9-.698 1.618-2.093 2.152-1.396.532-3.318.846-5.767.942v.995c0 .225-.132.388-.396.488-.263.101-.69.152-1.278.152M96 165h76v-11H96z"
          fill="#CE8E12"/>
    <path d="M172 165.5c0 6.904-17.013 12.5-38 12.5s-38-5.596-38-12.5 17.013-12.5 38-12.5 38 5.596 38 12.5"
          fill="#CE8E12"/>
    <path d="M154 163v13c1.033-.2 2.033-.417 3-.648V163h-3z" fill="#FDD574"/>
    <path d="M172 153.5c0 6.904-17.013 12.5-38 12.5s-38-5.596-38-12.5 17.013-12.5 38-12.5 38 5.596 38 12.5"
          fill="#FDD574"/>
    <path d="M134 141c-20.987 0-38 5.597-38 12.5s17.013 12.5 38 12.5 38-5.597 38-12.5-17.013-12.5-38-12.5m0 2.76c9.858 0 19.086 1.25 25.986 3.52 6.368 2.094 9.218 4.633 9.218 6.22 0 1.587-2.85 4.126-9.218 6.22-6.9 2.27-16.128 3.52-25.986 3.52s-19.087-1.25-25.986-3.52c-6.368-2.094-9.218-4.633-9.218-6.22 0-1.587 2.85-4.126 9.218-6.22 6.9-2.27 16.128-3.52 25.986-3.52"
          fill="#EFAA0F"/>
    <path d="M137.466 163h-6.745c-.589 0-1.015-.05-1.28-.152-.264-.1-.393-.263-.393-.488v-.96h-6.374c-.59 0-1.016-.05-1.279-.151-.263-.101-.395-.264-.395-.489v-2.08c0-.225.132-.388.395-.489.263-.1.69-.151 1.279-.151h12.512c.404 0 .706-.05.907-.151.2-.1.302-.222.302-.364 0-.202-.101-.35-.302-.445-.201-.095-.503-.148-.907-.16l-6.977-.373c-2.17-.118-3.915-.392-5.233-.818-1.318-.426-1.976-1.138-1.976-2.134v-1.866c0-.925.714-1.65 2.14-2.178 1.426-.527 3.395-.832 5.908-.916v-.995c0-.225.13-.388.394-.489.264-.1.69-.151 1.279-.151h6.745c.587 0 1.015.05 1.278.151.264.1.396.264.396.49v.96h4.51c.59 0 1.016.05 1.28.15.264.101.396.264.396.489v2.116c0 .225-.132.388-.395.489-.265.1-.691.15-1.28.15h-10.837c-.404 0-.714.051-.93.151-.217.102-.325.23-.325.383 0 .154.108.285.325.39.216.108.526.167.93.179l6.93.355c2.17.119 3.922.392 5.257.818 1.332.427 1.999 1.138 1.999 2.134v1.866c0 .9-.698 1.618-2.093 2.151-1.396.533-3.318.847-5.767.943v.995c0 .225-.132.388-.396.488-.263.101-.69.152-1.278.152M84 145h76v-11H84z"
          fill="#CE8E12"/>
    <path d="M160 144.5c0 6.904-17.013 12.5-38 12.5s-38-5.596-38-12.5 17.013-12.5 38-12.5 38 5.596 38 12.5"
          fill="#CE8E12"/>
    <path d="M141 142v13c1.033-.2 2.034-.417 3-.648V142h-3z" fill="#FDD574"/>
    <path d="M160 133.5c0 6.904-17.013 12.5-38 12.5s-38-5.596-38-12.5 17.013-12.5 38-12.5 38 5.596 38 12.5"
          fill="#FDD574"/>
    <path d="M122 121c-20.987 0-38 5.597-38 12.5s17.013 12.5 38 12.5 38-5.597 38-12.5-17.013-12.5-38-12.5m0 2.76c9.858 0 19.087 1.25 25.986 3.519 6.368 2.095 9.218 4.634 9.218 6.22 0 1.588-2.85 4.127-9.218 6.222-6.9 2.27-16.128 3.52-25.986 3.52s-19.087-1.25-25.987-3.52c-6.367-2.095-9.217-4.634-9.217-6.221 0-1.587 2.85-4.126 9.217-6.221 6.9-2.27 16.13-3.52 25.987-3.52"
          fill="#EFAA0F"/>
    <path d="M125.466 143h-6.745c-.589 0-1.016-.05-1.28-.152-.263-.1-.394-.263-.394-.488v-.96h-6.373c-.59 0-1.016-.05-1.279-.15-.263-.102-.395-.265-.395-.49v-2.08c0-.225.132-.388.395-.49.263-.1.69-.15 1.279-.15h12.512c.404 0 .706-.05.907-.151.2-.101.302-.223.302-.365 0-.201-.101-.349-.302-.444-.2-.095-.503-.148-.907-.16l-6.977-.374c-2.17-.118-3.915-.39-5.233-.817-1.318-.427-1.976-1.138-1.976-2.133v-1.868c0-.924.713-1.65 2.14-2.177 1.425-.528 3.395-.833 5.907-.916v-.995c0-.225.13-.389.394-.49.264-.1.691-.15 1.28-.15h6.745c.588 0 1.014.05 1.278.15.264.101.396.265.396.49v.96h4.51c.59 0 1.017.05 1.281.15.263.102.395.265.395.49v2.115c0 .226-.132.389-.395.49-.264.1-.69.15-1.28.15h-10.837c-.404 0-.713.05-.93.151-.218.101-.325.229-.325.383s.107.284.325.391c.217.106.526.166.93.178l6.93.355c2.17.119 3.923.391 5.258.818 1.331.427 1.998 1.138 1.998 2.133v1.867c0 .9-.698 1.618-2.092 2.151-1.397.533-3.32.848-5.768.943v.995c0 .225-.132.388-.396.488-.264.101-.69.152-1.278.152M96 124h76v-11H96z"
          fill="#CE8E12"/>
    <path d="M172 124.5c0 6.904-17.013 12.5-38 12.5s-38-5.596-38-12.5 17.013-12.5 38-12.5 38 5.596 38 12.5"
          fill="#CE8E12"/>
    <path d="M154 122v13c1.033-.2 2.033-.417 3-.648V122h-3z" fill="#FDD574"/>
    <path d="M172 113.5c0 6.904-17.013 12.5-38 12.5s-38-5.596-38-12.5 17.013-12.5 38-12.5 38 5.596 38 12.5"
          fill="#FDD574"/>
    <path d="M134 101c-20.987 0-38 5.597-38 12.5s17.013 12.5 38 12.5 38-5.597 38-12.5-17.013-12.5-38-12.5m0 2.76c9.858 0 19.086 1.25 25.986 3.52 6.368 2.094 9.218 4.633 9.218 6.22 0 1.587-2.85 4.126-9.218 6.22-6.9 2.27-16.128 3.52-25.986 3.52s-19.087-1.25-25.986-3.52c-6.368-2.094-9.218-4.633-9.218-6.22 0-1.587 2.85-4.126 9.218-6.22 6.9-2.27 16.128-3.52 25.986-3.52"
          fill="#EFAA0F"/>
    <path d="M137.466 122h-6.745c-.589 0-1.015-.05-1.28-.152-.264-.1-.393-.263-.393-.488v-.96h-6.374c-.59 0-1.016-.05-1.279-.151-.263-.101-.395-.264-.395-.489v-2.08c0-.225.132-.388.395-.489.263-.1.69-.151 1.279-.151h12.512c.404 0 .706-.05.907-.151.2-.1.302-.222.302-.364 0-.202-.101-.35-.302-.445-.201-.095-.503-.148-.907-.16l-6.977-.373c-2.17-.118-3.915-.392-5.233-.818-1.318-.426-1.976-1.138-1.976-2.134v-1.866c0-.925.714-1.65 2.14-2.178 1.426-.527 3.395-.832 5.908-.916v-.995c0-.225.13-.388.394-.489.264-.1.69-.151 1.279-.151h6.745c.587 0 1.015.05 1.278.151.264.1.396.264.396.49v.96h4.51c.59 0 1.016.05 1.28.15.264.101.396.264.396.489v2.116c0 .225-.132.388-.395.489-.265.1-.691.15-1.28.15h-10.837c-.404 0-.714.051-.93.151-.217.102-.325.23-.325.383 0 .154.108.285.325.39.216.108.526.167.93.179l6.93.355c2.17.119 3.922.392 5.257.818 1.332.427 1.999 1.138 1.999 2.134v1.866c0 .9-.698 1.618-2.093 2.151-1.396.533-3.318.847-5.767.943v.995c0 .225-.132.388-.396.488-.263.101-.69.152-1.278.152"
          fill="#CE8E12"/>
    <path d="M193 156.744l2.571 27.73L217.445 196l2.555-5.378-18.276-9.954 1.36-20.966s-4.876-10.541-10.084-2.958"
          fill="#10B2A2"/>
    <path d="M209.985 239.313s-3.188 1.934-1.483 3.596c1.706 1.663 8.296 7.186 13.916 5.898 5.62-1.29-5.399-6.444-7.21-8.469-1.81-2.025-3.247-3.535-5.223-1.025M219.985 232.313s-3.189 1.934-1.483 3.596c1.706 1.663 8.296 7.186 13.916 5.898 5.62-1.29-5.398-6.443-7.209-8.469-1.81-2.025-3.248-3.535-5.224-1.025"
          fill="#0E3E86"/>
    <path d="M208 231.531l1.74 8.118S211.406 242 216 242l-4-13-4 2.531zM217 225.531l1.74 8.118S220.406 236 225 236l-4-13-4 2.531z"
          fill="#FFDBB3"/>
    <path d="M175.677 193.224s-2.826 6.923 3.068 14.011c4.356 5.24 15.464 2.522 25.057-7.668 1.694-1.8 4.81-.74 5.764 1.536L217.213 227l6.787-.705-7.632-36.929c-.815-3.942-4.899-6.291-8.73-5.019l-16.533 5.49s-14.041-1.2-15.428 3.387"
          fill="#002969"/>
    <path d="M183.541 148.007s-10.465 4.053-12.73 7.412c-2.267 3.358-12.086 32.84-5.666 46.647 0 0 15.107 9.33 32.478-.746 0 0-12.566-15.033 5.377-41.902 0 0-2.95-11.734-19.459-11.411"
          fill="#13C4B2"/>
    <path d="M186.745 145.978L183 151.452s1.166 6.42 6.053 5.448c0 0 .862-5.161 4.902-9.015 4.041-3.853-4.775-5.466-7.21-1.907"
          fill="#FFDBB3"/>
    <path d="M201.868 144.44c-3.41 5.556-9.695 8.073-14.04 5.621-4.345-2.452-5.104-8.944-1.696-14.5 3.409-5.557 9.694-8.074 14.04-5.622 4.345 2.452 5.105 8.944 1.696 14.5"
          fill="#FFDBB3"/>
    <path d="M186.469 135.76s4.363-3.317 3.82 0c-.545 3.317-.272 2.48 1.632 0 1.903-2.48 5.167-3.923 7.615.356 2.448 4.279 5.44 3.518 8.432-.45 2.992-3.967-.816-5.811-7.616-8.71-6.8-2.898-16.616 1.008-13.883 8.804"
          fill="#251D73"/>
    <path d="M165.677 201.224s-2.826 6.923 3.068 14.011c4.356 5.24 15.464 2.523 25.057-7.668 1.693-1.8 4.81-.74 5.763 1.537L207.213 235l6.787-.705-7.632-36.929c-.815-3.942-4.9-6.29-8.73-5.019l-16.533 5.49s-14.041-1.2-15.428 3.387"
          fill="#1E51A0"/>
    <path d="M202.267 196.207s4.877-.652 4.925.699c.049 1.35-1.35.512-2.234 1.21-1.482 1.171 3.219-.64 3.97 1.864.751 2.505-4.522 5.311-8.53 0-4.006-5.31 1.869-3.773 1.869-3.773M217.053 192.192s-3.558 1.675-2.992 2.656c.566.982 1.132-.227 2.034-.118 1.512.182-2.442.955-1.836 3.065.605 2.11 5.383 1.793 5.717-3.74.334-5.53-2.923-1.863-2.923-1.863"
          fill="#FFDBB3"/>
    <path d="M172 158.694l2.643 29.65L200.373 200l2.627-5.439-20.267-14.709v-17.686s-5.38-11.14-10.733-3.472"
          fill="#10B2A2"/>
    <path d="M167 113c0 2.761-14.774 5-33 5-18.225 0-33-2.239-33-5 0-2.762 14.775-5 33-5 18.226 0 33 2.238 33 5"
          fill="#000"
          opacity=".1"/>
    <path d="M155.246 100.738c-1.743 0-3.154-1.37-3.154-3.061 0-1.691 1.411-3.062 3.154-3.062 1.742 0 3.154 1.37 3.154 3.062 0 1.69-1.412 3.061-3.154 3.061zM122.056 71h-3.572c-.765 0-1.455.445-1.752 1.13l-3.498 8.066a1.902 1.902 0 0 1-1.752 1.13h-3.58c-1.05 0-1.902.826-1.902 1.845v1.546c0 1.019.852 1.845 1.902 1.845 1.295 0 2.211 1.23 1.805 2.424l-1.333 3.913v17.256c0 1.019.851 1.845 1.901 1.845h5.64c1.05 0 1.901-.826 1.901-1.845v-2.529c0-1.019.85-1.845 1.901-1.845h30.566c1.05 0 1.9.826 1.9 1.845v2.529c0 1.019.852 1.845 1.902 1.845h5.64c1.05 0 1.9-.826 1.9-1.845V92.899l-1.332-3.912c-.41-1.204.525-2.445 1.837-2.424 1.04.015 1.87-.849 1.87-1.858V83.17c0-1.02-.852-1.845-1.902-1.845h-3.58a1.903 1.903 0 0 1-1.753-1.13l-3.497-8.066a1.902 1.902 0 0 0-1.752-1.13h-29.46zm25.887 2.093h.705c.768 0 1.46.45 1.755 1.138l4.821 11.257c.52 1.215-.399 2.553-1.755 2.553h-36.938c-1.356 0-2.276-1.338-1.755-2.553l4.82-11.257a1.903 1.903 0 0 1 1.756-1.138h26.591zm-.77 29.311h-24.345c-1.345 0-2.311-1.255-1.931-2.506l1.179-3.882c.252-.83 1.038-1.4 1.93-1.4H145.994c.893 0 1.68.57 1.931 1.4l1.18 3.882c.38 1.251-.587 2.506-1.932 2.506zm-32.47-1.666c-1.743 0-3.155-1.37-3.155-3.061 0-1.691 1.412-3.062 3.154-3.062 1.743 0 3.155 1.37 3.155 3.062 0 1.69-1.412 3.061-3.155 3.061z"
          fill="#483F7D"/>
    <path d="M152.84 88.748H138.42a.751.751 0 0 1-.754-.749c0-.413.338-.749.754-.749h14.418c.383 0 .724-.181.936-.498.213-.316.25-.698.103-1.05l-4.765-11.395a1.122 1.122 0 0 0-1.039-.69h-7.019a.752.752 0 0 1-.754-.749c0-.413.339-.748.754-.748h7.02c1.066 0 2.02.632 2.43 1.612l4.764 11.395c.339.81.25 1.728-.24 2.457a2.63 2.63 0 0 1-2.19 1.164m1.756 6.654a2.36 2.36 0 0 0-2.364 2.35 2.36 2.36 0 0 0 2.364 2.35 2.36 2.36 0 0 0 2.364-2.35 2.36 2.36 0 0 0-2.364-2.35m0 6.199c-2.135 0-3.871-1.727-3.871-3.849s1.736-3.848 3.871-3.848c2.134 0 3.87 1.726 3.87 3.848s-1.736 3.849-3.87 3.849m-7.979 1.686h-16.622a.751.751 0 0 1-.754-.75c0-.413.338-.748.754-.748h16.622c.394 0 .754-.18.99-.494.235-.313.307-.708.196-1.083l-1.165-3.929a1.243 1.243 0 0 0-1.186-.88h-15.457a.751.751 0 0 1-.754-.75c0-.414.338-.749.754-.749h15.457c1.208 0 2.289.804 2.631 1.955l1.165 3.93c.247.832.09 1.708-.434 2.404a2.724 2.724 0 0 1-2.197 1.094M159.021 113h-5.573a2.628 2.628 0 0 1-2.633-2.617v-2.56c0-.616-.504-1.118-1.125-1.118h-21.936a.751.751 0 0 1-.754-.75c0-.413.338-.748.754-.748h21.936a2.627 2.627 0 0 1 2.632 2.616v2.56c0 .617.505 1.118 1.126 1.118h5.573c.62 0 1.126-.501 1.126-1.118V93.036l-1.278-3.845a2.605 2.605 0 0 1 .377-2.371 2.632 2.632 0 0 1 2.164-1.067 1.03 1.03 0 0 0 .734-.3c.222-.217.35-.52.35-.832V83.07c0-.617-.506-1.119-1.127-1.119h-3.539a2.628 2.628 0 0 1-2.425-1.601l-3.457-8.166a1.123 1.123 0 0 0-1.037-.685h-7.22a.75.75 0 0 1-.754-.748c0-.415.337-.75.753-.75h7.22a2.63 2.63 0 0 1 2.427 1.602l3.457 8.165c.176.416.583.685 1.036.685h3.54A2.628 2.628 0 0 1 164 83.069v1.552c0 .71-.29 1.403-.8 1.9-.491.481-1.13.722-1.814.73h-.018c-.362 0-.692.165-.907.456a1.103 1.103 0 0 0-.162 1.014l1.317 3.96a.747.747 0 0 1 .038.235v17.467a2.628 2.628 0 0 1-2.633 2.617"
          fill="#B5A4EA"/>
  </g>
</svg>
