<?xml version="1.0" standalone="no"?>
<!DOCTYPE svg PUBLIC "-//W3C//DTD SVG 20010904//EN"
 "http://www.w3.org/TR/2001/REC-SVG-20010904/DTD/svg10.dtd">
<svg version="1.0" xmlns="http://www.w3.org/2000/svg"
 width="944.000000pt" height="244.000000pt" viewBox="0 0 944.000000 244.000000"
 preserveAspectRatio="xMidYMid meet">
<metadata>
Created by potrace 1.16, written by Peter Selinger 2001-2019
</metadata>
<g transform="translate(0.000000,244.000000) scale(0.100000,-0.100000)"
fill="white" stroke="none">
<path d="M555 1973 c-63 -149 -105 -254 -105 -263 0 -7 95 -10 286 -10 284 0
286 0 273 -20 -8 -11 -151 -214 -319 -451 -168 -237 -307 -436 -309 -441 -2
-6 37 17 85 49 266 178 700 389 964 466 39 12 61 25 75 46 31 44 92 89 138
102 52 14 118 4 152 -23 26 -20 28 -20 123 -5 53 9 125 19 160 23 58 6 62 8
56 28 -22 74 -100 162 -178 201 l-50 25 111 0 110 0 61 147 c34 81 59 149 56
152 -3 3 -381 7 -839 9 l-834 3 -16 -38z"/>
<path d="M2597 1709 c-132 -19 -278 -122 -340 -238 -16 -29 -27 -53 -25 -55 1
-1 43 -11 92 -23 l90 -21 45 50 c62 69 125 98 216 98 108 0 206 -56 251 -141
8 -16 19 -29 26 -29 11 0 144 47 159 56 13 8 -34 94 -82 148 -105 118 -273
179 -432 155z"/>
<path d="M3492 1709 c-156 -26 -285 -158 -311 -319 -6 -36 -11 -189 -11 -341
0 -225 3 -279 14 -288 9 -8 45 -11 98 -9 l83 3 3 98 3 97 184 0 185 0 0 -94
c0 -76 3 -95 16 -100 23 -9 157 -7 172 3 11 6 13 71 10 332 -4 375 -8 394 -99
493 -96 105 -214 147 -347 125z m175 -225 c63 -50 73 -81 73 -221 l0 -123
-185 0 -185 0 0 120 c0 99 3 128 19 158 37 73 92 104 178 99 52 -2 69 -8 100
-33z"/>
<path d="M4815 1698 c-3 -13 -4 -230 -3 -483 l3 -460 95 0 95 0 0 480 0 480
-92 3 c-89 3 -93 2 -98 -20z"/>
<path d="M5400 1510 l0 -210 -155 0 -155 0 0 -100 0 -100 155 0 155 0 0 -175
0 -175 95 0 95 0 0 485 0 485 -95 0 -95 0 0 -210z"/>
<path d="M5715 1707 c-3 -7 -5 -49 -3 -93 l3 -79 238 -5 239 -5 24 -28 c35
-41 33 -99 -5 -138 l-29 -29 -231 0 -231 0 -5 -23 c-3 -12 -5 -54 -3 -92 l3
-70 238 -5 239 -5 24 -28 c35 -41 33 -99 -5 -138 l-29 -29 -231 0 -231 0 -5
-23 c-3 -12 -5 -54 -3 -92 l3 -70 240 0 c274 0 304 6 383 79 62 57 92 124 92
208 0 57 -5 76 -35 134 -31 59 -34 69 -21 83 33 36 56 106 56 171 0 114 -65
212 -175 262 -47 22 -64 23 -293 26 -202 3 -243 1 -247 -11z"/>
<path d="M6915 1709 c-87 -13 -196 -70 -265 -139 -185 -185 -184 -485 1 -671
261 -261 711 -140 804 216 86 332 -199 645 -540 594z m181 -206 c66 -22 145
-101 167 -167 38 -111 13 -221 -67 -302 -182 -182 -485 -57 -486 201 0 203
189 335 386 268z"/>
<path d="M7925 1709 c-87 -13 -196 -70 -265 -139 -62 -62 -101 -132 -125 -225
-54 -213 53 -439 257 -540 167 -82 384 -54 525 69 99 86 163 228 163 361 0
292 -264 517 -555 474z m216 -221 c92 -54 141 -135 147 -239 15 -261 -309
-402 -490 -213 -109 115 -105 297 8 406 64 61 115 79 210 75 65 -3 89 -8 125
-29z"/>
<path d="M8532 1238 l3 -483 92 -3 93 -3 2 193 3 193 50 -3 c148 -7 299 -158
322 -322 l8 -55 93 -3 92 -3 0 48 c0 121 -63 256 -167 363 -40 41 -73 75 -73
76 0 1 33 34 73 75 107 110 167 239 167 361 l0 49 -92 -3 -93 -3 -8 -55 c-23
-160 -155 -294 -316 -319 -28 -4 -53 -6 -56 -3 -3 3 -5 90 -5 194 l0 188 -95
0 -95 0 2 -482z"/>
<path d="M4175 1698 c-91 -33 -166 -119 -185 -215 -26 -122 38 -250 154 -311
47 -24 63 -27 213 -32 159 -5 163 -6 189 -32 40 -39 38 -102 -5 -140 l-31 -28
-230 0 -230 0 0 -96 0 -96 248 4 c236 4 249 5 296 28 130 63 196 206 157 341
-20 70 -77 139 -145 173 -55 29 -65 30 -214 34 -174 5 -194 11 -212 67 -15 44
-4 80 32 110 l30 25 229 0 229 0 0 90 0 90 -247 -1 c-149 0 -260 -5 -278 -11z"/>
<path d="M2080 1379 c-372 -21 -935 -211 -1370 -463 -129 -76 -165 -103 -75
-58 507 253 1126 457 1450 477 l80 5 -110 -20 c-308 -57 -713 -187 -1056 -341
-277 -123 -627 -305 -829 -429 l-85 -52 235 6 c129 3 276 6 326 6 l91 0 84 63
c448 337 718 484 1119 611 346 109 458 87 323 -65 -45 -51 -46 -52 -13 -29
179 122 218 215 113 269 -35 18 -159 27 -283 20z"/>
<path d="M2110 1160 c-14 -4 -61 -18 -105 -30 -137 -38 -335 -113 -335 -127 0
-9 19 -13 70 -13 83 0 89 -11 36 -64 -43 -43 -94 -60 -159 -53 -43 4 -56 10
-79 37 l-27 33 -53 -26 c-75 -37 -255 -145 -263 -158 -4 -5 12 -28 35 -50 145
-138 418 -147 564 -19 l37 33 -6 -29 c-24 -107 -48 -166 -84 -204 l-38 -40 29
0 c16 0 65 14 109 31 98 38 169 102 193 176 19 58 108 484 104 499 -2 7 -12 8
-28 4z"/>
<path d="M2317 1098 c-42 -32 -77 -63 -77 -67 0 -26 89 -136 141 -175 87 -65
154 -88 274 -94 84 -3 110 0 164 18 121 40 223 125 275 229 14 28 26 54 26 59
0 8 -144 62 -166 62 -6 0 -16 -11 -22 -24 -6 -14 -28 -44 -49 -67 -133 -148
-388 -106 -470 77 l-18 41 -78 -59z"/>
<path d="M2240 465 l0 -95 2180 0 2180 0 0 95 0 95 -2180 0 -2180 0 0 -95z"/>
<path d="M6760 465 l0 -95 385 0 385 0 0 95 0 95 -385 0 -385 0 0 -95z"/>
<path d="M7610 465 l0 -95 385 0 385 0 0 95 0 95 -385 0 -385 0 0 -95z"/>
<path d="M8460 465 l0 -95 195 0 195 0 0 95 0 95 -195 0 -195 0 0 -95z"/>
<path d="M8930 465 l0 -95 190 0 190 0 0 95 0 95 -190 0 -190 0 0 -95z"/>
</g>
</svg>
