<?xml version="1.0" standalone="no"?>
<!DOCTYPE svg PUBLIC "-//W3C//DTD SVG 20010904//EN"
 "http://www.w3.org/TR/2001/REC-SVG-20010904/DTD/svg10.dtd">
<svg fill="white" version="1.0" xmlns="http://www.w3.org/2000/svg"
 width="50" height="50" viewBox="0 0 254.000000 186.000000"
 preserveAspectRatio="xMidYMid meet">
<metadata>
Created by potrace 1.16, written by Peter Selinger 2001-2019
</metadata>
<g transform="translate(0.000000,186.000000) scale(0.100000,-0.100000)"
fill="white" stroke="none">
<path d="M555 1703 c-63 -149 -105 -254 -105 -263 0 -7 95 -10 286 -10 284 0
286 0 273 -20 -8 -11 -151 -214 -319 -451 -168 -237 -307 -436 -309 -441 -2
-6 37 17 85 49 266 178 700 389 964 466 39 12 61 25 75 46 31 44 92 89 138
102 52 14 118 4 152 -23 26 -20 28 -20 123 -5 53 9 125 19 160 23 58 6 62 8
56 28 -22 74 -100 162 -178 201 l-50 25 111 0 110 0 61 147 c34 81 59 149 56
152 -3 3 -381 7 -839 9 l-834 3 -16 -38z"/>
<path d="M2080 1109 c-372 -21 -935 -211 -1370 -463 -129 -76 -165 -103 -75
-58 507 253 1126 457 1450 477 l80 5 -110 -20 c-308 -57 -713 -187 -1056 -341
-277 -123 -627 -305 -829 -429 l-85 -52 235 6 c129 3 276 6 326 6 l91 0 84 63
c448 337 718 484 1119 611 346 109 458 87 323 -65 -45 -51 -46 -52 -13 -29
179 122 218 215 113 269 -35 18 -159 27 -283 20z"/>
<path d="M2110 890 c-14 -4 -61 -18 -105 -30 -137 -38 -335 -113 -335 -127 0
-9 19 -13 70 -13 83 0 89 -11 36 -64 -43 -43 -94 -60 -159 -53 -43 4 -56 10
-79 37 l-27 33 -53 -26 c-75 -37 -255 -145 -263 -158 -4 -5 12 -28 35 -50 145
-138 418 -147 564 -19 l37 33 -6 -29 c-24 -107 -48 -166 -84 -204 l-38 -40 29
0 c16 0 65 14 109 31 98 38 169 102 193 176 19 58 108 484 104 499 -2 7 -12 8
-28 4z"/>
</g>
</svg>
