<svg id="OBJECTS" xmlns="http://www.w3.org/2000/svg" viewBox="0 0 573.955 136.15"><path d="M304.154,187.924a1.481,1.481,0,0,1,.63.972,1.709,1.709,0,0,1-.28,1.115,1.137,1.137,0,0,1-.875.539,1.72,1.72,0,0,1-1.016-.252,25.948,25.948,0,0,0-6.406-3.309,22.042,22.042,0,0,0-7.386-1.222,20.621,20.621,0,0,0-15.193,6.474,22.572,22.572,0,0,0-4.621,7.337,26.867,26.867,0,0,0,0,18.7,22.551,22.551,0,0,0,4.621,7.337,20.621,20.621,0,0,0,15.193,6.474,21.717,21.717,0,0,0,7.351-1.222,27.606,27.606,0,0,0,6.371-3.238,1.422,1.422,0,0,1,1.051-.287,1.278,1.278,0,0,1,.91.575,1.522,1.522,0,0,1,.28,1.079,1.32,1.32,0,0,1-.56.935,23.845,23.845,0,0,1-4.236,2.374,30.231,30.231,0,0,1-5.426,1.835,24.757,24.757,0,0,1-5.741.683,23.206,23.206,0,0,1-9.452-1.942,24.283,24.283,0,0,1-7.772-5.431,25.685,25.685,0,0,1-5.285-8.2,28.625,28.625,0,0,1,0-20.645,25.707,25.707,0,0,1,5.285-8.2,24.3,24.3,0,0,1,7.772-5.431,23.19,23.19,0,0,1,9.452-1.942,26.254,26.254,0,0,1,8.226,1.3A25.3,25.3,0,0,1,304.154,187.924Z" transform="translate(-86.926 -164.354)" fill="#1c233a"/><path d="M339.44,198.211a1.294,1.294,0,0,1,1.015.432,1.47,1.47,0,0,1,.385,1.007v20.933q0,6.978-3.816,10.466t-10.117,3.489a14.3,14.3,0,0,1-10.047-3.489q-3.816-3.488-3.816-10.466V199.65a1.4,1.4,0,0,1,.421-1.007,1.324,1.324,0,0,1,.98-.432,1.294,1.294,0,0,1,1.015.432,1.47,1.47,0,0,1,.385,1.007v20.933q0,5.468,2.976,8.344a11.136,11.136,0,0,0,8.086,2.878q5.181,0,8.157-2.878t2.976-8.344V199.65a1.464,1.464,0,0,1,.384-1.007A1.3,1.3,0,0,1,339.44,198.211Z" transform="translate(-86.926 -164.354)" fill="#1c233a"/><path d="M368.215,234.826a18.351,18.351,0,0,1-9.277-2.3,16.434,16.434,0,0,1-6.336-6.51,20.23,20.23,0,0,1-2.311-9.891,21.517,21.517,0,0,1,2.275-10.287,16.907,16.907,0,0,1,5.882-6.51,14.161,14.161,0,0,1,7.666-2.266,17.412,17.412,0,0,1,5.741.971,14.041,14.041,0,0,1,5.006,3.022,15.5,15.5,0,0,1,3.571,5.107,19.449,19.449,0,0,1,1.506,7.3,1.521,1.521,0,0,1-.421,1.043,1.278,1.278,0,0,1-.98.468H351.972l-.421-2.734h28.216l-.7.648v-1.295a12.05,12.05,0,0,0-2.345-6.4,13.1,13.1,0,0,0-4.8-3.92,13.376,13.376,0,0,0-5.811-1.331,11.375,11.375,0,0,0-4.411.971,13.221,13.221,0,0,0-4.27,2.949,14.991,14.991,0,0,0-3.186,5,20.272,20.272,0,0,0,.49,15.107,14.026,14.026,0,0,0,5.111,5.9,14.913,14.913,0,0,0,8.367,2.23,12.1,12.1,0,0,0,4.48-.827,14.163,14.163,0,0,0,3.781-2.194,13.279,13.279,0,0,0,2.731-2.949,1.586,1.586,0,0,1,1.189-.648,1.089,1.089,0,0,1,.841.4,1.323,1.323,0,0,1,.35.9,1.364,1.364,0,0,1-.28.863,20.957,20.957,0,0,1-5.566,5.036A13.752,13.752,0,0,1,368.215,234.826Z" transform="translate(-86.926 -164.354)" fill="#1c233a"/><path d="M407.281,197.06a12.967,12.967,0,0,1,7.177,1.8,10.585,10.585,0,0,1,4.061,4.892,17.725,17.725,0,0,1,1.294,6.906v22.012a1.4,1.4,0,0,1-.419,1.007,1.33,1.33,0,0,1-.98.431,1.3,1.3,0,0,1-1.016-.431,1.467,1.467,0,0,1-.384-1.007V210.943a14.9,14.9,0,0,0-1.016-5.61,8.73,8.73,0,0,0-3.221-4.029A10.028,10.028,0,0,0,407,199.793a13.034,13.034,0,0,0-6.021,1.511,14.2,14.2,0,0,0-4.866,4.029,9.012,9.012,0,0,0-1.926,5.61v21.725a1.4,1.4,0,0,1-.419,1.007,1.332,1.332,0,0,1-.981.431,1.3,1.3,0,0,1-1.015-.431,1.467,1.467,0,0,1-.384-1.007V199.65a1.4,1.4,0,0,1,.42-1.007,1.322,1.322,0,0,1,.979-.432,1.3,1.3,0,0,1,1.016.432,1.469,1.469,0,0,1,.384,1.007V206.7l-1.75,3.453a10.01,10.01,0,0,1,1.331-4.963,15.222,15.222,0,0,1,3.5-4.209,17.273,17.273,0,0,1,4.8-2.877A14.071,14.071,0,0,1,407.281,197.06Z" transform="translate(-86.926 -164.354)" fill="#1c233a"/><path d="M428.216,197.923h16.243a1.22,1.22,0,0,1,.945.432,1.384,1.384,0,0,1,.385.935,1.34,1.34,0,0,1-.385.971,1.269,1.269,0,0,1-.945.4H428.216a1.253,1.253,0,0,1-.91-.432,1.317,1.317,0,0,1-.421-.935,1.281,1.281,0,0,1,.421-.971A1.308,1.308,0,0,1,428.216,197.923Zm7.14-10.574a1.3,1.3,0,0,1,1.016.432,1.467,1.467,0,0,1,.385,1.007v37.478a7.724,7.724,0,0,0,.6,3.488,2.815,2.815,0,0,0,1.5,1.439,5.217,5.217,0,0,0,1.751.324,2.19,2.19,0,0,0,.84-.144,2.2,2.2,0,0,1,.84-.144,1.091,1.091,0,0,1,.841.4,1.23,1.23,0,0,1-.455,2.014,3.923,3.923,0,0,1-2,.467c-.281,0-.782-.011-1.5-.036a5.6,5.6,0,0,1-2.311-.647,4.86,4.86,0,0,1-2.065-2.23,10.679,10.679,0,0,1-.84-4.783V188.788a1.4,1.4,0,0,1,.42-1.007A1.322,1.322,0,0,1,435.356,187.349Z" transform="translate(-86.926 -164.354)" fill="#1c233a"/><path d="M482.476,198.211a1.294,1.294,0,0,1,1.015.432,1.47,1.47,0,0,1,.385,1.007v33.018a1.4,1.4,0,0,1-.42,1.007,1.329,1.329,0,0,1-.98.431,1.3,1.3,0,0,1-1.015-.431,1.46,1.46,0,0,1-.386-1.007V222.453l1.121-.935a10.912,10.912,0,0,1-1.121,4.676A15.187,15.187,0,0,1,478,230.51a15.423,15.423,0,0,1-4.621,3.129,13.934,13.934,0,0,1-5.741,1.187,14.446,14.446,0,0,1-8.366-2.518,17.212,17.212,0,0,1-5.777-6.834,21.9,21.9,0,0,1-2.1-9.711,21.091,21.091,0,0,1,2.135-9.675,16.838,16.838,0,0,1,5.811-6.618,14.806,14.806,0,0,1,8.3-2.41,14.533,14.533,0,0,1,5.671,1.115,14.249,14.249,0,0,1,4.656,3.129,14.563,14.563,0,0,1,3.115,4.712,15.15,15.15,0,0,1,1.121,5.862l-1.121-1.8V199.65a1.462,1.462,0,0,1,.386-1.007A1.293,1.293,0,0,1,482.476,198.211Zm-14.7,33.881a12.045,12.045,0,0,0,7-2.122,14.318,14.318,0,0,0,4.831-5.826,19.4,19.4,0,0,0,1.75-8.381,18.42,18.42,0,0,0-1.75-8.093,14.438,14.438,0,0,0-4.831-5.754,12.053,12.053,0,0,0-7-2.123,12.225,12.225,0,0,0-6.931,2.051,14.18,14.18,0,0,0-4.866,5.647,18.359,18.359,0,0,0-1.786,8.272,19.384,19.384,0,0,0,1.75,8.381,14.311,14.311,0,0,0,4.831,5.826A12.046,12.046,0,0,0,467.773,232.092Z" transform="translate(-86.926 -164.354)" fill="#1c233a"/><polygon points="25.699 91.233 25.699 39.054 69.916 20.204 50.252 0 7.925 18.045 0 30.239 0 111.004 17.774 123.198 89.82 92.495 70.156 72.291 25.699 91.233" fill="#d8ae26"/><polygon points="111.551 40.119 111.551 92.298 67.334 111.148 86.998 131.352 129.326 113.307 137.25 101.113 137.25 20.348 119.476 8.154 47.43 38.857 67.094 59.061 111.551 40.119" fill="#d8ae26"/><path d="M391.818,252.739a2.591,2.591,0,0,1,1.4,1.943,3.166,3.166,0,0,1-.63,2.445,2.242,2.242,0,0,1-1.61.972,3.413,3.413,0,0,1-1.961-.4,21.349,21.349,0,0,0-4.971-2.266,18.781,18.781,0,0,0-5.6-.828,19.376,19.376,0,0,0-7.561,1.439,17.106,17.106,0,0,0-5.951,4.137,19.236,19.236,0,0,0-3.921,6.366,22.407,22.407,0,0,0-1.4,8.056,23.063,23.063,0,0,0,1.47,8.489,18.9,18.9,0,0,0,4.026,6.366,17.112,17.112,0,0,0,5.951,3.992,19.6,19.6,0,0,0,7.386,1.366,19.252,19.252,0,0,0,5.531-.791,18.9,18.9,0,0,0,4.971-2.3,3.279,3.279,0,0,1,2-.36,2.394,2.394,0,0,1,1.646,1.007,2.882,2.882,0,0,1,.665,2.41,2.711,2.711,0,0,1-1.365,1.906,24.118,24.118,0,0,1-3.992,1.942A29.745,29.745,0,0,1,383.242,300a23.5,23.5,0,0,1-4.8.5,25.344,25.344,0,0,1-9.522-1.8,24.438,24.438,0,0,1-7.946-5.143,23.515,23.515,0,0,1-5.426-8.128,28.335,28.335,0,0,1-1.961-10.827,27.29,27.29,0,0,1,1.891-10.251,24.82,24.82,0,0,1,5.251-8.164,23.786,23.786,0,0,1,7.876-5.359,25.037,25.037,0,0,1,9.837-1.907,25.863,25.863,0,0,1,7.072.971A22.938,22.938,0,0,1,391.818,252.739Z" transform="translate(-86.926 -164.354)" fill="#1c233a"/><path d="M435.087,281.081a20.391,20.391,0,0,1-2.415,10,18.266,18.266,0,0,1-6.512,6.905,17.214,17.214,0,0,1-9.207,2.519,17.389,17.389,0,0,1-9.241-2.519,18.171,18.171,0,0,1-6.547-6.905,21.905,21.905,0,0,1,0-20,18.2,18.2,0,0,1,6.547-6.906,17.407,17.407,0,0,1,9.241-2.518,17.231,17.231,0,0,1,9.207,2.518,18.291,18.291,0,0,1,6.512,6.906A20.39,20.39,0,0,1,435.087,281.081Zm-5.671,0a15.482,15.482,0,0,0-1.645-7.3,12.992,12.992,0,0,0-4.481-4.964,11.427,11.427,0,0,0-6.337-1.834,11.546,11.546,0,0,0-6.406,1.834,13.264,13.264,0,0,0-4.516,4.964,16.628,16.628,0,0,0,0,14.567,13.19,13.19,0,0,0,4.516,5,11.539,11.539,0,0,0,6.406,1.835,11.42,11.42,0,0,0,6.337-1.835,12.923,12.923,0,0,0,4.481-5A15.54,15.54,0,0,0,429.416,281.081Z" transform="translate(-86.926 -164.354)" fill="#1c233a"/><path d="M461.481,261.659a12.389,12.389,0,0,1,7.492,2.014,10.9,10.9,0,0,1,3.885,5.395,23.485,23.485,0,0,1,1.156,7.625v20.142a2.956,2.956,0,0,1-.805,2.086,2.624,2.624,0,0,1-2,.863,2.589,2.589,0,0,1-2.03-.863,3.022,3.022,0,0,1-.771-2.086v-20a14.527,14.527,0,0,0-.8-4.963,7.267,7.267,0,0,0-2.7-3.561,8.6,8.6,0,0,0-5.041-1.331,11.118,11.118,0,0,0-5.392,1.331,10.767,10.767,0,0,0-3.92,3.561,8.824,8.824,0,0,0-1.47,4.963v20a2.952,2.952,0,0,1-.806,2.086,2.737,2.737,0,0,1-3.99,0,2.948,2.948,0,0,1-.806-2.086V265.544a2.916,2.916,0,0,1,.806-2.122,2.672,2.672,0,0,1,2-.827,2.644,2.644,0,0,1,2.03.827,2.99,2.99,0,0,1,.771,2.122v5.035l-1.4,1.582a10.339,10.339,0,0,1,1.611-3.776,14.89,14.89,0,0,1,3.15-3.417,15.957,15.957,0,0,1,4.2-2.409A13.193,13.193,0,0,1,461.481,261.659Z" transform="translate(-86.926 -164.354)" fill="#1c233a"/><path d="M501.46,263.17a2.6,2.6,0,0,1,1.89.755,2.744,2.744,0,0,1,0,3.812,2.6,2.6,0,0,1-1.89.756H483.887a2.594,2.594,0,0,1-1.891-.756,2.789,2.789,0,0,1,0-3.848,2.667,2.667,0,0,1,1.891-.719ZM499.5,246.7a10.241,10.241,0,0,1,2.485.324,6.474,6.474,0,0,1,2.242,1.007,2.224,2.224,0,0,1,.945,1.907,2.7,2.7,0,0,1-.7,1.906,2.215,2.215,0,0,1-1.681.756,6.1,6.1,0,0,1-1.75-.361,7.546,7.546,0,0,0-2.311-.359,4.43,4.43,0,0,0-2.625.72,4.054,4.054,0,0,0-1.47,1.906,7.245,7.245,0,0,0-.455,2.625v39.708a2.952,2.952,0,0,1-.806,2.086,2.62,2.62,0,0,1-2,.863,2.587,2.587,0,0,1-2.03-.863,3.017,3.017,0,0,1-.771-2.086V257.127a10.134,10.134,0,0,1,2.905-7.589Q494.387,246.7,499.5,246.7Zm14.423,10.5a3.907,3.907,0,0,1-2.59-.72,2.771,2.771,0,0,1-.841-2.229v-1.007a2.67,2.67,0,0,1,.91-2.23,4.1,4.1,0,0,1,2.591-.72,3.8,3.8,0,0,1,2.521.72,2.777,2.777,0,0,1,.84,2.23v1.007a2.717,2.717,0,0,1-.875,2.229A3.935,3.935,0,0,1,513.922,257.2Zm2.871,39.636a2.952,2.952,0,0,1-.806,2.086,2.62,2.62,0,0,1-2,.863,2.7,2.7,0,0,1-2.065-.863,2.947,2.947,0,0,1-.805-2.086V264.968a2.947,2.947,0,0,1,.805-2.086,2.7,2.7,0,0,1,2.065-.863,2.62,2.62,0,0,1,2,.863,2.952,2.952,0,0,1,.806,2.086Z" transform="translate(-86.926 -164.354)" fill="#1c233a"/><path d="M556.7,262.234a2.676,2.676,0,0,1,2,.828,2.827,2.827,0,0,1,.806,2.05v31.723a2.952,2.952,0,0,1-.806,2.086,2.62,2.62,0,0,1-2,.863,2.7,2.7,0,0,1-2.065-.863,2.947,2.947,0,0,1-.8-2.086V290l1.33-.144a7.04,7.04,0,0,1-1.051,3.489,13.885,13.885,0,0,1-2.87,3.453,15.524,15.524,0,0,1-4.27,2.662,13.477,13.477,0,0,1-5.322,1.043,15.079,15.079,0,0,1-8.577-2.554,17.475,17.475,0,0,1-5.986-6.942,22.254,22.254,0,0,1-2.17-10,21.912,21.912,0,0,1,2.205-10.034,17.47,17.47,0,0,1,5.951-6.834,14.932,14.932,0,0,1,8.437-2.482,15.332,15.332,0,0,1,5.6,1.007,14.665,14.665,0,0,1,4.516,2.733,12.99,12.99,0,0,1,2.976,3.813,9.215,9.215,0,0,1,1.05,4.173l-1.82-.432v-7.841a2.822,2.822,0,0,1,.8-2.05A2.757,2.757,0,0,1,556.7,262.234Zm-14.423,32.947a10.442,10.442,0,0,0,6.161-1.87,12.891,12.891,0,0,0,4.2-5.073,16.47,16.47,0,0,0,1.54-7.229,16.08,16.08,0,0,0-1.54-7.121,12.948,12.948,0,0,0-4.2-5.035,10.442,10.442,0,0,0-6.161-1.871,10.637,10.637,0,0,0-6.126,1.834,12.536,12.536,0,0,0-4.236,5,16.233,16.233,0,0,0-1.54,7.193,16.775,16.775,0,0,0,1.5,7.229,12.508,12.508,0,0,0,4.2,5.073A10.6,10.6,0,0,0,542.277,295.181Z" transform="translate(-86.926 -164.354)" fill="#1c233a"/><path d="M587.716,261.659a15.218,15.218,0,0,1,8.542,2.482,17.438,17.438,0,0,1,5.986,6.8,21.691,21.691,0,0,1,2.2,10,22.124,22.124,0,0,1-2.2,10.07,17.984,17.984,0,0,1-5.951,6.942,14.641,14.641,0,0,1-8.437,2.554,14.168,14.168,0,0,1-4.866-.827,15.66,15.66,0,0,1-4.131-2.231,15.988,15.988,0,0,1-3.115-3.057,11.37,11.37,0,0,1-1.82-3.381l1.54-.935v7.121a3.018,3.018,0,0,1-.771,2.086,2.587,2.587,0,0,1-2.03.864,2.672,2.672,0,0,1-2-.828,2.912,2.912,0,0,1-.806-2.122V249.5a2.948,2.948,0,0,1,.806-2.086,2.614,2.614,0,0,1,2-.863,2.587,2.587,0,0,1,2.03.863,3.022,3.022,0,0,1,.771,2.086v22.156l-1.051-.575a10.757,10.757,0,0,1,1.716-3.489,14.067,14.067,0,0,1,3.011-3.022,15.322,15.322,0,0,1,3.99-2.122A13.493,13.493,0,0,1,587.716,261.659Zm-.63,5.323a10.755,10.755,0,0,0-6.2,1.834,12.33,12.33,0,0,0-4.2,4.964,16.309,16.309,0,0,0-1.5,7.158,17.018,17.018,0,0,0,1.5,7.265,12.463,12.463,0,0,0,4.2,5.108,10.6,10.6,0,0,0,6.2,1.87,10.442,10.442,0,0,0,6.161-1.87,12.839,12.839,0,0,0,4.2-5.108,16.694,16.694,0,0,0,1.54-7.265,16,16,0,0,0-1.54-7.158,12.707,12.707,0,0,0-4.2-4.964A10.593,10.593,0,0,0,587.086,266.982Z" transform="translate(-86.926 -164.354)" fill="#1c233a"/><path d="M619.012,296.835a2.882,2.882,0,0,1-.84,2.086,2.731,2.731,0,0,1-2.03.863,2.621,2.621,0,0,1-2-.863,2.947,2.947,0,0,1-.8-2.086V249.5a2.878,2.878,0,0,1,.841-2.086,2.722,2.722,0,0,1,2.03-.863,2.588,2.588,0,0,1,2.03.863,3.025,3.025,0,0,1,.77,2.086Z" transform="translate(-86.926 -164.354)" fill="#1c233a"/><path d="M645.9,300.5a19.28,19.28,0,0,1-9.872-2.446,16.962,16.962,0,0,1-6.51-6.726,20.5,20.5,0,0,1-2.311-9.892,22,22,0,0,1,2.415-10.681,17.4,17.4,0,0,1,6.3-6.762,15.709,15.709,0,0,1,8.226-2.338,16.421,16.421,0,0,1,6.232,1.223,15.5,15.5,0,0,1,5.32,3.6,18.45,18.45,0,0,1,3.711,5.611,19.145,19.145,0,0,1,1.471,7.337,2.452,2.452,0,0,1-.841,1.906,2.838,2.838,0,0,1-1.96.755H630.425l-1.261-4.963H656.05l-1.12,1.007V276.55a9.146,9.146,0,0,0-1.856-5.071,11.311,11.311,0,0,0-3.991-3.274,11.069,11.069,0,0,0-4.936-1.151,11.553,11.553,0,0,0-4.166.792,10.485,10.485,0,0,0-3.71,2.445,12.181,12.181,0,0,0-2.661,4.316,18.017,18.017,0,0,0-1.015,6.4,15.7,15.7,0,0,0,1.645,7.338,13.289,13.289,0,0,0,15.719,6.186,11.665,11.665,0,0,0,3.115-1.619,15.384,15.384,0,0,0,2.205-1.977,3.127,3.127,0,0,1,1.821-.648,2.264,2.264,0,0,1,1.68.719,2.391,2.391,0,0,1,.7,1.726,2.965,2.965,0,0,1-1.12,2.231A17.968,17.968,0,0,1,653,298.849,15.753,15.753,0,0,1,645.9,300.5Z" transform="translate(-86.926 -164.354)" fill="#1c233a"/></svg>