<svg xmlns="http://www.w3.org/2000/svg" viewBox="0 0 224.279 51.53"><g id="Capa_2" data-name="Capa 2"><g id="OBJECTS"><path d="M83.546,8.757a.814.814,0,0,1,.381.559.857.857,0,0,1-.19.667.6.6,0,0,1-.477.286,1.245,1.245,0,0,1-.585-.123,8.565,8.565,0,0,0-2.206-1.061A8.3,8.3,0,0,0,77.938,8.7a7.921,7.921,0,0,0-3.091.6,7.484,7.484,0,0,0-2.491,1.689,7.629,7.629,0,0,0-1.647,2.586,8.978,8.978,0,0,0-.585,3.3,9.031,9.031,0,0,0,.6,3.361,7.67,7.67,0,0,0,1.674,2.6,7.325,7.325,0,0,0,2.491,1.66,8.051,8.051,0,0,0,3.05.572,8.176,8.176,0,0,0,2.518-.381,9.7,9.7,0,0,0,2.219-1.035.864.864,0,0,1,.572-.122.8.8,0,0,1,.517.312.853.853,0,0,1,.163.654.669.669,0,0,1-.354.517,10.816,10.816,0,0,1-1.606.83,10.508,10.508,0,0,1-1.96.614,10.107,10.107,0,0,1-2.069.217,9.645,9.645,0,0,1-3.69-.708,9.353,9.353,0,0,1-5.132-5.09,10.16,10.16,0,0,1-.762-4,9.88,9.88,0,0,1,.749-3.894,9.75,9.75,0,0,1,2.055-3.091,9.349,9.349,0,0,1,3.05-2.054,9.475,9.475,0,0,1,3.73-.736,10.317,10.317,0,0,1,2.994.436A9.642,9.642,0,0,1,83.546,8.757Z" fill="#fff"/><path d="M97.4,12.57a.771.771,0,0,1,.585.244.81.81,0,0,1,.231.572v7.678a5.333,5.333,0,0,1-1.524,4.11,6.657,6.657,0,0,1-8.209,0,5.359,5.359,0,0,1-1.511-4.11V13.386a.788.788,0,0,1,.245-.572.816.816,0,0,1,.6-.244.77.77,0,0,1,.585.244.807.807,0,0,1,.232.572v7.678a3.979,3.979,0,0,0,1.048,2.981,4.666,4.666,0,0,0,5.826,0,3.976,3.976,0,0,0,1.049-2.981V13.386a.812.812,0,0,1,.844-.816Z" fill="#fff"/><path d="M108.784,26.672a7.457,7.457,0,0,1-3.7-.9,6.4,6.4,0,0,1-2.505-2.505,7.581,7.581,0,0,1-.9-3.757,7.985,7.985,0,0,1,.912-3.948,6.673,6.673,0,0,1,2.369-2.518,5.861,5.861,0,0,1,3.09-.885,6.594,6.594,0,0,1,2.328.423,5.956,5.956,0,0,1,2.014,1.252,6.16,6.16,0,0,1,1.416,2.028,7.436,7.436,0,0,1,.585,2.777.841.841,0,0,1-.272.558.806.806,0,0,1-.571.231H102.631l-.327-1.469h10.727l-.354.326v-.544a4.072,4.072,0,0,0-.844-2.165,4.854,4.854,0,0,0-1.7-1.362,4.771,4.771,0,0,0-2.083-.476,4.68,4.68,0,0,0-1.674.327,4.4,4.4,0,0,0-1.553,1.021,5.25,5.25,0,0,0-1.129,1.77,6.747,6.747,0,0,0-.436,2.545,6.429,6.429,0,0,0,.653,2.913,5.014,5.014,0,0,0,1.893,2.069,5.527,5.527,0,0,0,2.954.763,4.822,4.822,0,0,0,3.035-.994,5.289,5.289,0,0,0,.967-.94.923.923,0,0,1,.572-.245.667.667,0,0,1,.5.218.7.7,0,0,1,.2.49.754.754,0,0,1-.273.573,7.335,7.335,0,0,1-2.123,1.7A5.827,5.827,0,0,1,108.784,26.672Z" fill="#fff"/><path d="M124.439,12.161a5.092,5.092,0,0,1,2.872.721,4.061,4.061,0,0,1,1.552,1.96,7.588,7.588,0,0,1,.476,2.737v8a.837.837,0,0,1-.816.816.815.815,0,0,1-.845-.816V17.661a5.381,5.381,0,0,0-.354-1.988,3.006,3.006,0,0,0-1.143-1.429,3.7,3.7,0,0,0-2.1-.531,4.841,4.841,0,0,0-2.219.531,4.681,4.681,0,0,0-1.7,1.429,3.308,3.308,0,0,0-.654,1.988v7.923a.836.836,0,0,1-.816.816.813.813,0,0,1-.844-.816v-12.2a.784.784,0,0,1,.245-.572.815.815,0,0,1,.6-.244.771.771,0,0,1,.585.244.81.81,0,0,1,.231.572v2.287l-.626.98a3.54,3.54,0,0,1,.559-1.674,5.857,5.857,0,0,1,1.293-1.443,6.358,6.358,0,0,1,1.756-1.007A5.439,5.439,0,0,1,124.439,12.161Z" fill="#fff"/><path d="M132.715,12.543h6.344a.716.716,0,0,1,.544.231.785.785,0,0,1,.218.558.743.743,0,0,1-.762.762h-6.344a.79.79,0,0,1-.79-.79.72.72,0,0,1,.232-.544A.784.784,0,0,1,132.715,12.543Zm2.8-3.839a.771.771,0,0,1,.586.245.809.809,0,0,1,.231.571V23.187a2.5,2.5,0,0,0,.2,1.144,1.013,1.013,0,0,0,.531.5,1.844,1.844,0,0,0,.653.122,1.1,1.1,0,0,0,.4-.068,1.1,1.1,0,0,1,.4-.068.557.557,0,0,1,.422.19.693.693,0,0,1,.177.491.748.748,0,0,1-.436.639,1.982,1.982,0,0,1-1.034.259q-.245,0-.735-.041a2.762,2.762,0,0,1-1.007-.3,2.071,2.071,0,0,1-.872-.912,4.02,4.02,0,0,1-.354-1.879V9.52a.782.782,0,0,1,.245-.571A.813.813,0,0,1,135.519,8.7Z" fill="#fff"/><path d="M154.25,12.488a.774.774,0,0,1,.586.245.844.844,0,0,1,.231.6V25.584a.837.837,0,0,1-.817.816.761.761,0,0,1-.6-.245.834.834,0,0,1-.218-.571V22.343l.463-.19a3.3,3.3,0,0,1-.422,1.538,5.343,5.343,0,0,1-1.157,1.47,6.091,6.091,0,0,1-1.729,1.09,5.418,5.418,0,0,1-2.137.421,5.9,5.9,0,0,1-3.308-.953,6.536,6.536,0,0,1-2.287-2.613,8.22,8.22,0,0,1-.83-3.73,7.99,7.99,0,0,1,.844-3.744,6.547,6.547,0,0,1,2.286-2.545,6.11,6.11,0,0,1,5.432-.517,5.674,5.674,0,0,1,1.783,1.116,5.342,5.342,0,0,1,1.2,1.619,4.354,4.354,0,0,1,.435,1.893l-.572-.408V13.332a.87.87,0,0,1,.218-.6A.761.761,0,0,1,154.25,12.488Zm-5.663,12.66a4.487,4.487,0,0,0,2.559-.749A5.112,5.112,0,0,0,152.9,22.33a6.7,6.7,0,0,0,.639-2.954A6.4,6.4,0,0,0,152.9,16.5a5.165,5.165,0,0,0-1.757-2.042,4.487,4.487,0,0,0-2.559-.749,4.634,4.634,0,0,0-2.545.721,4.938,4.938,0,0,0-1.77,2,6.49,6.49,0,0,0-.64,2.941,6.682,6.682,0,0,0,.64,2.954,5.1,5.1,0,0,0,1.756,2.069A4.487,4.487,0,0,0,148.587,25.148Z" fill="#fff"/><polygon points="9.993 34.53 9.993 14.781 27.188 7.647 19.541 0 3.082 6.829 0 11.445 0 42.013 6.912 46.628 34.928 35.008 27.281 27.361 9.993 34.53" fill="#d8ae26"/><polygon points="43.378 15.184 43.378 34.933 26.184 42.067 33.83 49.714 50.29 42.885 53.372 38.27 53.372 7.701 46.46 3.086 18.444 14.707 26.09 22.353 43.378 15.184" fill="#d8ae26"/><path d="M117.2,33.288a1.193,1.193,0,0,1,.7.926,1.389,1.389,0,0,1-.341,1.144,1.008,1.008,0,0,1-.762.476,1.767,1.767,0,0,1-.952-.2,8.067,8.067,0,0,0-1.648-.654,6.872,6.872,0,0,0-1.838-.244,7.174,7.174,0,0,0-2.79.517,6.358,6.358,0,0,0-2.138,1.443,6.262,6.262,0,0,0-1.375,2.2,8.075,8.075,0,0,0-.476,2.832,8.279,8.279,0,0,0,.517,3.035A6.417,6.417,0,0,0,107.523,47a5.794,5.794,0,0,0,2.151,1.361,7.789,7.789,0,0,0,2.681.449,7.512,7.512,0,0,0,1.811-.218,6.849,6.849,0,0,0,1.675-.653,1.574,1.574,0,0,1,.952-.177,1.219,1.219,0,0,1,.79.476,1.454,1.454,0,0,1,.326,1.171,1.148,1.148,0,0,1-.68.871,9.31,9.31,0,0,1-1.5.667,10.605,10.605,0,0,1-1.661.436,9.87,9.87,0,0,1-1.715.15,10.586,10.586,0,0,1-3.716-.653,9.262,9.262,0,0,1-3.1-1.907,9.037,9.037,0,0,1-2.137-3.076,10.383,10.383,0,0,1-.789-4.165,10.007,10.007,0,0,1,.734-3.867,9.294,9.294,0,0,1,5.146-5.105,10.166,10.166,0,0,1,3.866-.721,9.931,9.931,0,0,1,2.546.327A9.686,9.686,0,0,1,117.2,33.288Z" fill="#fff"/><path d="M134.408,44.1a7.647,7.647,0,0,1-.953,3.854,6.977,6.977,0,0,1-2.586,2.627,7.564,7.564,0,0,1-7.351,0,7.079,7.079,0,0,1-2.6-2.627,8.213,8.213,0,0,1,0-7.733,7.191,7.191,0,0,1,2.6-2.641,7.2,7.2,0,0,1,9.937,2.641A7.7,7.7,0,0,1,134.408,44.1Zm-2.722,0a5.37,5.37,0,0,0-.6-2.6,4.517,4.517,0,0,0-1.621-1.729,4.263,4.263,0,0,0-2.273-.626,4.337,4.337,0,0,0-2.287.626,4.473,4.473,0,0,0-1.633,1.729,5.853,5.853,0,0,0,0,5.159,4.443,4.443,0,0,0,1.633,1.743,4.337,4.337,0,0,0,2.287.626,4.263,4.263,0,0,0,2.273-.626,4.487,4.487,0,0,0,1.621-1.743A5.329,5.329,0,0,0,131.686,44.1Z" fill="#fff"/><path d="M144.862,36.61a4.881,4.881,0,0,1,3,.8,4.2,4.2,0,0,1,1.484,2.151,10.053,10.053,0,0,1,.422,3.008v7.3a1.349,1.349,0,0,1-.4.994,1.313,1.313,0,0,1-.966.394,1.349,1.349,0,0,1-1.389-1.388V42.6a5.3,5.3,0,0,0-.272-1.757,2.491,2.491,0,0,0-.926-1.238,3.166,3.166,0,0,0-1.851-.463A4,4,0,0,0,142,39.6a3.481,3.481,0,0,0-1.321,1.238,3.288,3.288,0,0,0-.476,1.757v7.269a1.349,1.349,0,0,1-.395.994,1.314,1.314,0,0,1-.967.394,1.349,1.349,0,0,1-1.388-1.388V38.325a1.349,1.349,0,0,1,1.388-1.388,1.314,1.314,0,0,1,.967.394,1.351,1.351,0,0,1,.395.994V39.85l-.491.272a3.966,3.966,0,0,1,.667-1.212,6.607,6.607,0,0,1,1.158-1.143,5.655,5.655,0,0,1,1.525-.844A5.112,5.112,0,0,1,144.862,36.61Z" fill="#fff"/><path d="M160.762,37.182a1.253,1.253,0,1,1,0,2.5h-7.051a1.235,1.235,0,0,1-.886-.354,1.283,1.283,0,0,1,0-1.8,1.23,1.23,0,0,1,.886-.354Zm-.545-6.045a4.36,4.36,0,0,1,1.062.137,2.131,2.131,0,0,1,.912.462,1.08,1.08,0,0,1,.368.845,1.261,1.261,0,0,1-.327.912,1.025,1.025,0,0,1-.762.34,2.756,2.756,0,0,1-.735-.136,3.265,3.265,0,0,0-.926-.136,1.639,1.639,0,0,0-1.007.285,1.6,1.6,0,0,0-.545.708,2.29,2.29,0,0,0-.163.831V49.869a1.349,1.349,0,0,1-.395.994,1.315,1.315,0,0,1-.966.394,1.3,1.3,0,0,1-.98-.394,1.371,1.371,0,0,1-.382-.994V35.412a4.09,4.09,0,0,1,1.239-3.076A4.986,4.986,0,0,1,160.217,31.137Zm5.718,3.894a1.821,1.821,0,0,1-1.144-.286,1.175,1.175,0,0,1-.353-.967v-.435a1.089,1.089,0,0,1,.381-.953,1.969,1.969,0,0,1,1.143-.272,1.882,1.882,0,0,1,1.171.285,1.144,1.144,0,0,1,.354.94v.435a1.145,1.145,0,0,1-.368.98A2.013,2.013,0,0,1,165.935,35.031ZM167.3,49.869a1.374,1.374,0,0,1-.381.994,1.416,1.416,0,0,1-1.96,0,1.371,1.371,0,0,1-.382-.994V38.216a1.351,1.351,0,0,1,.395-.994,1.4,1.4,0,0,1,1.947,0,1.376,1.376,0,0,1,.381.994Z" fill="#fff"/><path d="M182.706,36.719a1.306,1.306,0,0,1,.98.394,1.377,1.377,0,0,1,.382.995V49.869a1.375,1.375,0,0,1-.382.994,1.416,1.416,0,0,1-1.96,0,1.374,1.374,0,0,1-.381-.994v-1.96l.572.108a2.07,2.07,0,0,1-.4,1.076,4.9,4.9,0,0,1-1.076,1.157,6.208,6.208,0,0,1-1.606.912,5.334,5.334,0,0,1-1.987.368,6.084,6.084,0,0,1-3.376-.967,6.783,6.783,0,0,1-2.369-2.654,8.986,8.986,0,0,1,0-7.719,6.755,6.755,0,0,1,2.355-2.627,6.2,6.2,0,0,1,5.445-.572,6.3,6.3,0,0,1,1.729.98,5.093,5.093,0,0,1,1.143,1.266,2.436,2.436,0,0,1,.409,1.266l-.844.082V38.108a1.388,1.388,0,0,1,.381-.981A1.281,1.281,0,0,1,182.706,36.719Zm-5.554,12.306a3.986,3.986,0,0,0,2.26-.653,4.392,4.392,0,0,0,1.525-1.784,6.1,6.1,0,0,0,0-5.037,4.291,4.291,0,0,0-1.525-1.769,4.047,4.047,0,0,0-2.26-.64,3.931,3.931,0,0,0-2.219.64,4.439,4.439,0,0,0-1.525,1.756,5.992,5.992,0,0,0,0,5.05,4.524,4.524,0,0,0,1.525,1.784A3.872,3.872,0,0,0,177.152,49.025Z" fill="#fff"/><path d="M195.093,36.61a6.138,6.138,0,0,1,3.39.953,6.755,6.755,0,0,1,2.355,2.627,8.223,8.223,0,0,1,.871,3.853,8.306,8.306,0,0,1-.871,3.866,6.867,6.867,0,0,1-2.341,2.654,5.909,5.909,0,0,1-3.322.967,5.63,5.63,0,0,1-1.96-.341,6.338,6.338,0,0,1-1.634-.871,5.714,5.714,0,0,1-1.157-1.13,2.959,2.959,0,0,1-.558-1.089l.735-.381v2.369a1.361,1.361,0,0,1-.4.98,1.292,1.292,0,0,1-.966.408,1.349,1.349,0,0,1-1.389-1.388V32.5a1.361,1.361,0,0,1,.4-.98,1.323,1.323,0,0,1,.994-.409,1.289,1.289,0,0,1,.966.409,1.361,1.361,0,0,1,.4.98V40.15l-.435-.246a2.377,2.377,0,0,1,.517-1.075,6.2,6.2,0,0,1,1.1-1.075,5.611,5.611,0,0,1,1.525-.831A5.153,5.153,0,0,1,195.093,36.61Zm-.3,2.532a4.026,4.026,0,0,0-2.273.64,4.352,4.352,0,0,0-1.512,1.742,5.616,5.616,0,0,0-.544,2.519,5.782,5.782,0,0,0,.544,2.545,4.417,4.417,0,0,0,1.512,1.784,3.964,3.964,0,0,0,2.273.653,3.858,3.858,0,0,0,2.233-.653,4.442,4.442,0,0,0,1.5-1.8,5.818,5.818,0,0,0,.545-2.532,5.617,5.617,0,0,0-.545-2.519,4.4,4.4,0,0,0-1.5-1.742A3.917,3.917,0,0,0,194.794,39.142Z" fill="#fff"/><path d="M207.726,49.869a1.349,1.349,0,0,1-.4.994,1.382,1.382,0,0,1-1.933,0,1.345,1.345,0,0,1-.4-.994V32.5a1.323,1.323,0,0,1,.409-.994,1.359,1.359,0,0,1,.98-.395,1.259,1.259,0,0,1,.966.395,1.4,1.4,0,0,1,.368.994Z" fill="#fff"/><path d="M218.181,51.53a7.836,7.836,0,0,1-3.921-.94A6.586,6.586,0,0,1,211.688,48a7.643,7.643,0,0,1-.912-3.771,8.161,8.161,0,0,1,.966-4.1,6.917,6.917,0,0,1,2.518-2.614,6.4,6.4,0,0,1,3.3-.912,6.182,6.182,0,0,1,2.532.531,7.025,7.025,0,0,1,3.621,3.676,7.271,7.271,0,0,1,.571,2.763,1.22,1.22,0,0,1-.435.9,1.411,1.411,0,0,1-.953.354H212.3l-.653-2.314h10.236l-.517.49v-.681a2.982,2.982,0,0,0-.653-1.66,4.113,4.113,0,0,0-1.4-1.117,3.932,3.932,0,0,0-1.756-.408,4.772,4.772,0,0,0-1.566.258,3.56,3.56,0,0,0-1.334.831,3.948,3.948,0,0,0-.926,1.511,6.887,6.887,0,0,0-.34,2.328,5.246,5.246,0,0,0,.626,2.613,4.486,4.486,0,0,0,1.688,1.73,4.605,4.605,0,0,0,2.342.612,5.539,5.539,0,0,0,1.647-.2,4.351,4.351,0,0,0,1.089-.5,9.208,9.208,0,0,0,.776-.571,1.527,1.527,0,0,1,.789-.245,1.136,1.136,0,0,1,1.171,1.143,1.4,1.4,0,0,1-.6,1.089,6.563,6.563,0,0,1-2.028,1.252A6.915,6.915,0,0,1,218.181,51.53Z" fill="#fff"/></g></g></svg>