<svg data-name="Layer 1" id="Layer_1" viewBox="0 0 56 56" xmlns="http://www.w3.org/2000/svg">
  <defs>
    <style>.cls-1 {
      fill: #fff;
    }

    .cls-2 {
      fill: #312c30;
      fill-rule: evenodd;
    }</style>
  </defs>
  <title>WhatsappIcon</title>
  <g data-name="Group 56" id="Group_56">
    <path class="cls-1" d="M28,55.76A27.29,27.29,0,1,1,55.3,28.47,27.29,27.29,0,0,1,28,55.76Z" data-name="Path 48"
          id="Path_48"/>
  </g>
  <g data-name="Group 59" id="Group_59">
    <g data-name="Group 57" id="Group_57">
      <path class="cls-2" d="M29.29,10.7A16.47,16.47,0,0,0,15.45,36.11L13,41.63a1.43,1.43,0,0,0,.71,1.9,1.38,1.38,0,0,0,.6.13,1.73,1.73,0,0,0,.38,0l6.9-1.89a16.48,16.48,0,1,0,7.76-31Zm0,30.08a13.64,13.64,0,0,1-6.85-1.85,1.41,1.41,0,0,0-1.1-.14L16.83,40l1.57-3.46a1.44,1.44,0,0,0-.14-1.43,13.6,13.6,0,1,1,11,5.65Z" data-name="Path 49"
            id="Path_49"/>
    </g>
    <g data-name="Group 58" id="Group_58">
      <path class="cls-2" d="M35.63,29.65a2.81,2.81,0,0,0-2.4-.54c-.63.25-1,1.23-1.43,1.73A.61.61,0,0,1,31,31a10.93,10.93,0,0,1-5.43-4.65.66.66,0,0,1,.09-.91,3.64,3.64,0,0,0,1-1.6,3.51,3.51,0,0,0-.44-1.9,4.42,4.42,0,0,0-1.4-2.1,1.92,1.92,0,0,0-2.08.31,4.22,4.22,0,0,0-1.47,3.34,4.83,4.83,0,0,0,.14,1.07,8.4,8.4,0,0,0,1,2.34,17.34,17.34,0,0,0,1.06,1.62,16.54,16.54,0,0,0,4.61,4.29A14,14,0,0,0,31,34.18a6.33,6.33,0,0,0,3.35.53,4.05,4.05,0,0,0,3-2.26,2,2,0,0,0,.14-1.15C37.34,30.51,36.27,30,35.63,29.65Z" data-name="Path 50"
            id="Path_50"/>
    </g>
  </g>
</svg>
