<svg height="15" viewBox="0 0 15 15" width="15" xmlns="http://www.w3.org/2000/svg">
  <path d="M14.625 11.823l-2.31-2.31c-.46-.459-1.223-.445-1.699.031l-1.164 1.164-.23-.128c-.735-.407-1.74-.965-2.8-2.025-1.061-1.061-1.62-2.069-2.028-2.804l-.126-.225.782-.78.384-.384c.477-.477.49-1.24.03-1.699L3.155.353c-.459-.46-1.221-.446-1.698.031l-.651.655.017.018c-.218.278-.4.6-.536.946-.125.33-.203.645-.239.96-.305 2.53.85 4.84 3.987 7.977 4.336 4.335 7.83 4.008 7.98 3.992.329-.04.644-.118.963-.242.344-.134.665-.316.943-.534l.014.013.66-.646c.476-.477.49-1.24.03-1.7z" fill="#837AAD"
        fill-rule="nonzero"/>
</svg>
