<svg height="12" viewBox="0 0 15 12" width="15" xmlns="http://www.w3.org/2000/svg">
  <g fill="#837AAD" fill-rule="nonzero">
    <path
      d="M1.439 3.654c.19.134.76.531 1.714 1.192.954.66 1.684 1.17 2.192 1.526l.355.256c.181.13.332.237.452.318.12.08.265.171.435.271.17.1.33.176.48.226.151.05.29.075.42.075h.016c.128 0 .268-.025.418-.075.15-.05.311-.125.481-.226.17-.1.315-.19.435-.271.12-.081.27-.187.452-.318.18-.132.3-.216.355-.256l3.915-2.718a3.974 3.974 0 0 0 1.02-1.029c.273-.401.41-.822.41-1.263 0-.368-.132-.683-.397-.945a1.293 1.293 0 0 0-.941-.393H1.338c-.43 0-.76.145-.99.435C.115.749 0 1.11 0 1.546c0 .352.153.732.46 1.142.307.41.633.732.979.966z"/>
    <path
      d="M14.152 4.55a173.839 173.839 0 0 0-4.165 2.885c-.318.234-.576.417-.774.548a4.775 4.775 0 0 1-.79.401 2.407 2.407 0 0 1-.92.205h-.017c-.284 0-.591-.068-.92-.205a4.777 4.777 0 0 1-.79-.401 19.81 19.81 0 0 1-.774-.548C4.249 6.883 2.863 5.92.845 4.549A4.43 4.43 0 0 1 0 3.821v6.642c0 .368.131.683.393.945.262.262.577.393.945.393h12.313c.368 0 .683-.131.945-.393.262-.262.393-.577.393-.945V3.82c-.24.268-.518.51-.837.728z"/>
  </g>
</svg>
